<?xml version="1.0" encoding="UTF-8" standalone="no"?>
<!DOCTYPE svg PUBLIC "-//W3C//DTD SVG 1.1//EN"
 "http://www.w3.org/Graphics/SVG/1.1/DTD/svg11.dtd">
<!-- Generated by graphviz version 2.38.0 (20140413.2041)
 -->
<!-- Title: ingenialink/common.h Pages: 1 -->
<svg width="417pt" height="420pt"
 viewBox="0.00 0.00 417.00 420.00" xmlns="http://www.w3.org/2000/svg" xmlns:xlink="http://www.w3.org/1999/xlink">
<g id="graph0" class="graph" transform="scale(1 1) rotate(0) translate(4 416)">
<title>ingenialink/common.h</title>
<polygon fill="white" stroke="none" points="-4,4 -4,-416 413,-416 413,4 -4,4"/>
<!-- Node1 -->
<g id="node1" class="node"><title>Node1</title>
<polygon fill="#bfbfbf" stroke="black" points="192,-392.5 192,-411.5 303,-411.5 303,-392.5 192,-392.5"/>
<text text-anchor="middle" x="247.5" y="-399.5" font-family="Helvetica,sans-Serif" font-size="10.00">ingenialink/common.h</text>
</g>
<!-- Node2 -->
<g id="node2" class="node"><title>Node2</title>
<g id="a_node2"><a xlink:href="$dict__labels_8h.html" xlink:title="Labels dictionary. ">
<polygon fill="white" stroke="black" points="26.5,-336.5 26.5,-355.5 146.5,-355.5 146.5,-336.5 26.5,-336.5"/>
<text text-anchor="middle" x="86.5" y="-343.5" font-family="Helvetica,sans-Serif" font-size="10.00">ingenialink/dict_labels.h</text>
</a>
</g>
</g>
<!-- Node1&#45;&gt;Node2 -->
<g id="edge1" class="edge"><title>Node1&#45;&gt;Node2</title>
<path fill="none" stroke="midnightblue" d="M212.235,-389.172C181.919,-379.004 138.93,-364.585 111.892,-355.516"/>
<polygon fill="midnightblue" stroke="midnightblue" points="211.395,-392.582 221.989,-392.444 213.621,-385.945 211.395,-392.582"/>
</g>
<!-- Node10 -->
<g id="node10" class="node"><title>Node10</title>
<g id="a_node10"><a xlink:href="$err_8h.html" xlink:title="Error reporting. ">
<polygon fill="white" stroke="black" points="233,-224.5 233,-243.5 318,-243.5 318,-224.5 233,-224.5"/>
<text text-anchor="middle" x="275.5" y="-231.5" font-family="Helvetica,sans-Serif" font-size="10.00">ingenialink/err.h</text>
</a>
</g>
</g>
<!-- Node1&#45;&gt;Node10 -->
<g id="edge12" class="edge"><title>Node1&#45;&gt;Node10</title>
<path fill="none" stroke="midnightblue" d="M250.717,-381.93C256.791,-345.92 269.726,-269.231 274.055,-243.568"/>
<polygon fill="midnightblue" stroke="midnightblue" points="247.217,-381.632 249.005,-392.075 254.12,-382.797 247.217,-381.632"/>
</g>
<!-- Node11 -->
<g id="node11" class="node"><title>Node11</title>
<g id="a_node11"><a xlink:href="$net_8h.html" xlink:title="Network. ">
<polygon fill="white" stroke="black" points="160,-280.5 160,-299.5 247,-299.5 247,-280.5 160,-280.5"/>
<text text-anchor="middle" x="203.5" y="-287.5" font-family="Helvetica,sans-Serif" font-size="10.00">ingenialink/net.h</text>
</a>
</g>
</g>
<!-- Node1&#45;&gt;Node11 -->
<g id="edge14" class="edge"><title>Node1&#45;&gt;Node11</title>
<path fill="none" stroke="midnightblue" d="M240.299,-382.998C230.699,-358.997 214.087,-317.468 206.937,-299.591"/>
<polygon fill="midnightblue" stroke="midnightblue" points="237.084,-384.384 244.047,-392.368 243.583,-381.784 237.084,-384.384"/>
</g>
<!-- Node12 -->
<g id="node12" class="node"><title>Node12</title>
<g id="a_node12"><a xlink:href="$version_8h.html" xlink:title="Version information. ">
<polygon fill="white" stroke="black" points="304,-168.5 304,-187.5 409,-187.5 409,-168.5 304,-168.5"/>
<text text-anchor="middle" x="356.5" y="-175.5" font-family="Helvetica,sans-Serif" font-size="10.00">ingenialink/version.h</text>
</a>
</g>
</g>
<!-- Node1&#45;&gt;Node12 -->
<g id="edge16" class="edge"><title>Node1&#45;&gt;Node12</title>
<path fill="none" stroke="midnightblue" d="M257.049,-383.354C261.493,-375.076 266.82,-365.06 271.5,-356 297.042,-306.554 303.712,-294.313 327.5,-244 336.901,-224.115 347.249,-200.458 352.682,-187.888"/>
<polygon fill="midnightblue" stroke="midnightblue" points="253.832,-381.945 252.169,-392.409 259.994,-385.267 253.832,-381.945"/>
</g>
<!-- Node3 -->
<g id="node3" class="node"><title>Node3</title>
<g id="a_node3"><a xlink:href="$dict_8h.html" xlink:title="Dictionary. ">
<polygon fill="white" stroke="black" points="0,-224.5 0,-243.5 89,-243.5 89,-224.5 0,-224.5"/>
<text text-anchor="middle" x="44.5" y="-231.5" font-family="Helvetica,sans-Serif" font-size="10.00">ingenialink/dict.h</text>
</a>
</g>
</g>
<!-- Node2&#45;&gt;Node3 -->
<g id="edge2" class="edge"><title>Node2&#45;&gt;Node3</title>
<path fill="none" stroke="midnightblue" d="M55.4825,-331.667C42.5095,-324.348 28.7787,-313.892 21.5,-300 11.5001,-280.914 26.9334,-256.533 36.9783,-243.739"/>
<polygon fill="midnightblue" stroke="midnightblue" points="54.2038,-334.947 64.6919,-336.447 57.4285,-328.734 54.2038,-334.947"/>
</g>
<!-- Node9 -->
<g id="node9" class="node"><title>Node9</title>
<g id="a_node9"><a xlink:href="$registers_8h.html" xlink:title="Registers. ">
<polygon fill="white" stroke="black" points="31,-280.5 31,-299.5 142,-299.5 142,-280.5 31,-280.5"/>
<text text-anchor="middle" x="86.5" y="-287.5" font-family="Helvetica,sans-Serif" font-size="10.00">ingenialink/registers.h</text>
</a>
</g>
</g>
<!-- Node2&#45;&gt;Node9 -->
<g id="edge10" class="edge"><title>Node2&#45;&gt;Node9</title>
<path fill="none" stroke="midnightblue" d="M86.5,-325.805C86.5,-316.91 86.5,-306.78 86.5,-299.751"/>
<polygon fill="midnightblue" stroke="midnightblue" points="83.0001,-326.083 86.5,-336.083 90.0001,-326.083 83.0001,-326.083"/>
</g>
<!-- Node4 -->
<g id="node4" class="node"><title>Node4</title>
<g id="a_node4"><a xlink:href="$ingenialink_8h.html" xlink:title="IngeniaLink main header. ">
<polygon fill="white" stroke="black" points="135,-56.5 135,-75.5 254,-75.5 254,-56.5 135,-56.5"/>
<text text-anchor="middle" x="194.5" y="-63.5" font-family="Helvetica,sans-Serif" font-size="10.00">ingenialink/ingenialink.h</text>
</a>
</g>
</g>
<!-- Node3&#45;&gt;Node4 -->
<g id="edge3" class="edge"><title>Node3&#45;&gt;Node4</title>
<path fill="none" stroke="midnightblue" d="M32.7194,-215.802C16.9569,-190.449 -6.39936,-142.736 17.5,-112 31.9512,-93.415 89.1956,-81.2495 134.724,-74.3094"/>
<polygon fill="midnightblue" stroke="midnightblue" points="29.8876,-217.867 38.2744,-224.341 35.7554,-214.05 29.8876,-217.867"/>
</g>
<!-- Node6 -->
<g id="node6" class="node"><title>Node6</title>
<g id="a_node6"><a xlink:href="$servo_8h.html" xlink:title="Servo. ">
<polygon fill="white" stroke="black" points="105.5,-168.5 105.5,-187.5 203.5,-187.5 203.5,-168.5 105.5,-168.5"/>
<text text-anchor="middle" x="154.5" y="-175.5" font-family="Helvetica,sans-Serif" font-size="10.00">ingenialink/servo.h</text>
</a>
</g>
</g>
<!-- Node3&#45;&gt;Node6 -->
<g id="edge5" class="edge"><title>Node3&#45;&gt;Node6</title>
<path fill="none" stroke="midnightblue" d="M71.2621,-219.862C91.659,-209.849 119.166,-196.346 136.87,-187.655"/>
<polygon fill="midnightblue" stroke="midnightblue" points="69.6077,-216.775 62.1734,-224.324 72.6925,-223.059 69.6077,-216.775"/>
</g>
<!-- Node5 -->
<g id="node5" class="node"><title>Node5</title>
<g id="a_node5"><a xlink:href="$utils_8h_source.html" xlink:title="utils.h">
<polygon fill="white" stroke="black" points="173,-0.5 173,-19.5 216,-19.5 216,-0.5 173,-0.5"/>
<text text-anchor="middle" x="194.5" y="-7.5" font-family="Helvetica,sans-Serif" font-size="10.00">utils.h</text>
</a>
</g>
</g>
<!-- Node4&#45;&gt;Node5 -->
<g id="edge4" class="edge"><title>Node4&#45;&gt;Node5</title>
<path fill="none" stroke="midnightblue" d="M194.5,-45.8045C194.5,-36.9102 194.5,-26.7798 194.5,-19.7511"/>
<polygon fill="midnightblue" stroke="midnightblue" points="191,-46.083 194.5,-56.083 198,-46.083 191,-46.083"/>
</g>
<!-- Node7 -->
<g id="node7" class="node"><title>Node7</title>
<g id="a_node7"><a xlink:href="$monitor_8h.html" xlink:title="Monitor. ">
<polygon fill="white" stroke="black" points="141.5,-112.5 141.5,-131.5 247.5,-131.5 247.5,-112.5 141.5,-112.5"/>
<text text-anchor="middle" x="194.5" y="-119.5" font-family="Helvetica,sans-Serif" font-size="10.00">ingenialink/monitor.h</text>
</a>
</g>
</g>
<!-- Node6&#45;&gt;Node7 -->
<g id="edge6" class="edge"><title>Node6&#45;&gt;Node7</title>
<path fill="none" stroke="midnightblue" d="M167.2,-159.855C174.126,-150.505 182.406,-139.327 188.018,-131.751"/>
<polygon fill="midnightblue" stroke="midnightblue" points="164.245,-157.964 161.105,-168.083 169.87,-162.131 164.245,-157.964"/>
</g>
<!-- Node8 -->
<g id="node8" class="node"><title>Node8</title>
<g id="a_node8"><a xlink:href="$poller_8h.html" xlink:title="Poller. ">
<polygon fill="white" stroke="black" points="27,-112.5 27,-131.5 124,-131.5 124,-112.5 27,-112.5"/>
<text text-anchor="middle" x="75.5" y="-119.5" font-family="Helvetica,sans-Serif" font-size="10.00">ingenialink/poller.h</text>
</a>
</g>
</g>
<!-- Node6&#45;&gt;Node8 -->
<g id="edge8" class="edge"><title>Node6&#45;&gt;Node8</title>
<path fill="none" stroke="midnightblue" d="M133.466,-162.622C119.034,-152.757 100.359,-139.992 88.1612,-131.655"/>
<polygon fill="midnightblue" stroke="midnightblue" points="131.577,-165.57 141.807,-168.324 135.527,-159.791 131.577,-165.57"/>
</g>
<!-- Node7&#45;&gt;Node4 -->
<g id="edge7" class="edge"><title>Node7&#45;&gt;Node4</title>
<path fill="none" stroke="midnightblue" d="M194.5,-101.805C194.5,-92.9102 194.5,-82.7798 194.5,-75.7511"/>
<polygon fill="midnightblue" stroke="midnightblue" points="191,-102.083 194.5,-112.083 198,-102.083 191,-102.083"/>
</g>
<!-- Node8&#45;&gt;Node4 -->
<g id="edge9" class="edge"><title>Node8&#45;&gt;Node4</title>
<path fill="none" stroke="midnightblue" d="M103.637,-108.232C125.896,-98.1312 156.356,-84.3091 175.732,-75.5164"/>
<polygon fill="midnightblue" stroke="midnightblue" points="102.016,-105.124 94.3559,-112.444 104.909,-111.498 102.016,-105.124"/>
</g>
<!-- Node9&#45;&gt;Node3 -->
<g id="edge11" class="edge"><title>Node9&#45;&gt;Node3</title>
<path fill="none" stroke="midnightblue" d="M73.3898,-272.144C66.0722,-262.736 57.2591,-251.405 51.3064,-243.751"/>
<polygon fill="midnightblue" stroke="midnightblue" points="70.6624,-274.338 79.5646,-280.083 76.1878,-270.041 70.6624,-274.338"/>
</g>
<!-- Node10&#45;&gt;Node4 -->
<g id="edge13" class="edge"><title>Node10&#45;&gt;Node4</title>
<path fill="none" stroke="midnightblue" d="M276.818,-214.304C277.694,-189.161 276.045,-143.926 256.5,-112 246.361,-95.4388 227.621,-83.1312 213.388,-75.6121"/>
<polygon fill="midnightblue" stroke="midnightblue" points="273.321,-214.153 276.292,-224.322 280.311,-214.52 273.321,-214.153"/>
</g>
<!-- Node11&#45;&gt;Node6 -->
<g id="edge15" class="edge"><title>Node11&#45;&gt;Node6</title>
<path fill="none" stroke="midnightblue" d="M195.481,-270.998C184.789,-246.997 166.29,-205.468 158.327,-187.591"/>
<polygon fill="midnightblue" stroke="midnightblue" points="192.389,-272.658 199.655,-280.368 198.783,-269.81 192.389,-272.658"/>
</g>
<!-- Node12&#45;&gt;Node4 -->
<g id="edge17" class="edge"><title>Node12&#45;&gt;Node4</title>
<path fill="none" stroke="midnightblue" d="M342.788,-160.988C330.04,-146.805 309.984,-126.205 289.5,-112 266.855,-96.2968 237.872,-83.4623 217.906,-75.5756"/>
<polygon fill="midnightblue" stroke="midnightblue" points="340.164,-163.304 349.397,-168.5 345.419,-158.68 340.164,-163.304"/>
</g>
</g>
</svg>
