<?xml version="1.0" encoding="UTF-8" standalone="no"?>
<!DOCTYPE svg PUBLIC "-//W3C//DTD SVG 1.1//EN"
 "http://www.w3.org/Graphics/SVG/1.1/DTD/svg11.dtd">
<!-- Generated by graphviz version 2.38.0 (20140413.2041)
 -->
<!-- Title: dict.c Pages: 1 -->
<svg width="362pt" height="476pt"
 viewBox="0.00 0.00 362.00 476.00" xmlns="http://www.w3.org/2000/svg" xmlns:xlink="http://www.w3.org/1999/xlink">
<g id="graph0" class="graph" transform="scale(1 1) rotate(0) translate(4 472)">
<title>dict.c</title>
<polygon fill="white" stroke="none" points="-4,4 -4,-472 358,-472 358,4 -4,4"/>
<!-- Node1 -->
<g id="node1" class="node"><title>Node1</title>
<polygon fill="#bfbfbf" stroke="black" points="73.5,-448.5 73.5,-467.5 114.5,-467.5 114.5,-448.5 73.5,-448.5"/>
<text text-anchor="middle" x="94" y="-455.5" font-family="Helvetica,sans-Serif" font-size="10.00">dict.c</text>
</g>
<!-- Node2 -->
<g id="node2" class="node"><title>Node2</title>
<polygon fill="white" stroke="#bfbfbf" points="0,-392.5 0,-411.5 46,-411.5 46,-392.5 0,-392.5"/>
<text text-anchor="middle" x="23" y="-399.5" font-family="Helvetica,sans-Serif" font-size="10.00">stdio.h</text>
</g>
<!-- Node1&#45;&gt;Node2 -->
<g id="edge1" class="edge"><title>Node1&#45;&gt;Node2</title>
<path fill="none" stroke="midnightblue" d="M82.5926,-448.324C71.8912,-440.185 55.6593,-427.839 42.8372,-418.087"/>
<polygon fill="midnightblue" stroke="midnightblue" points="44.6932,-415.102 34.6149,-411.834 40.4556,-420.673 44.6932,-415.102"/>
</g>
<!-- Node3 -->
<g id="node3" class="node"><title>Node3</title>
<polygon fill="white" stroke="#bfbfbf" points="64.5,-392.5 64.5,-411.5 123.5,-411.5 123.5,-392.5 64.5,-392.5"/>
<text text-anchor="middle" x="94" y="-399.5" font-family="Helvetica,sans-Serif" font-size="10.00">inttypes.h</text>
</g>
<!-- Node1&#45;&gt;Node3 -->
<g id="edge2" class="edge"><title>Node1&#45;&gt;Node3</title>
<path fill="none" stroke="midnightblue" d="M94,-448.083C94,-441.006 94,-430.861 94,-421.986"/>
<polygon fill="midnightblue" stroke="midnightblue" points="97.5001,-421.751 94,-411.751 90.5001,-421.751 97.5001,-421.751"/>
</g>
<!-- Node4 -->
<g id="node4" class="node"><title>Node4</title>
<g id="a_node4"><a xlink:href="$ingenialink_8h.html" xlink:title="IngeniaLink main header. ">
<polygon fill="white" stroke="black" points="141.5,-392.5 141.5,-411.5 260.5,-411.5 260.5,-392.5 141.5,-392.5"/>
<text text-anchor="middle" x="201" y="-399.5" font-family="Helvetica,sans-Serif" font-size="10.00">ingenialink/ingenialink.h</text>
</a>
</g>
</g>
<!-- Node1&#45;&gt;Node4 -->
<g id="edge3" class="edge"><title>Node1&#45;&gt;Node4</title>
<path fill="none" stroke="midnightblue" d="M111.191,-448.324C128.351,-439.664 154.946,-426.242 174.747,-416.249"/>
<polygon fill="midnightblue" stroke="midnightblue" points="176.501,-419.285 183.851,-411.655 173.347,-413.035 176.501,-419.285"/>
</g>
<!-- Node5 -->
<g id="node5" class="node"><title>Node5</title>
<g id="a_node5"><a xlink:href="$const_8h.html" xlink:title="Constants. ">
<polygon fill="white" stroke="black" points="30.5,-336.5 30.5,-355.5 79.5,-355.5 79.5,-336.5 30.5,-336.5"/>
<text text-anchor="middle" x="55" y="-343.5" font-family="Helvetica,sans-Serif" font-size="10.00">const.h</text>
</a>
</g>
</g>
<!-- Node4&#45;&gt;Node5 -->
<g id="edge4" class="edge"><title>Node4&#45;&gt;Node5</title>
<path fill="none" stroke="midnightblue" d="M177.866,-392.444C153.518,-383.438 114.993,-369.189 87.577,-359.049"/>
<polygon fill="midnightblue" stroke="midnightblue" points="88.6191,-355.703 78.0259,-355.516 86.1908,-362.268 88.6191,-355.703"/>
</g>
<!-- Node6 -->
<g id="node6" class="node"><title>Node6</title>
<g id="a_node6"><a xlink:href="$dict_8h.html" xlink:title="Dictionary. ">
<polygon fill="white" stroke="black" points="119.5,-224.5 119.5,-243.5 160.5,-243.5 160.5,-224.5 119.5,-224.5"/>
<text text-anchor="middle" x="140" y="-231.5" font-family="Helvetica,sans-Serif" font-size="10.00">dict.h</text>
</a>
</g>
</g>
<!-- Node4&#45;&gt;Node6 -->
<g id="edge5" class="edge"><title>Node4&#45;&gt;Node6</title>
<path fill="none" stroke="midnightblue" d="M174.071,-392.356C157.281,-385.411 137.022,-373.825 127,-356 108.607,-323.288 121.996,-277.718 131.919,-252.881"/>
<polygon fill="midnightblue" stroke="midnightblue" points="135.171,-254.177 135.856,-243.604 128.727,-251.442 135.171,-254.177"/>
</g>
<!-- Node13 -->
<g id="node13" class="node"><title>Node13</title>
<g id="a_node13"><a xlink:href="$err_8h.html" xlink:title="Error reporting. ">
<polygon fill="white" stroke="black" points="261,-280.5 261,-299.5 297,-299.5 297,-280.5 261,-280.5"/>
<text text-anchor="middle" x="279" y="-287.5" font-family="Helvetica,sans-Serif" font-size="10.00">err.h</text>
</a>
</g>
</g>
<!-- Node4&#45;&gt;Node13 -->
<g id="edge13" class="edge"><title>Node4&#45;&gt;Node13</title>
<path fill="none" stroke="midnightblue" d="M222.671,-392.403C238.147,-385.093 258.086,-373.05 269,-356 277.753,-342.327 279.867,-323.791 280.018,-310.011"/>
<polygon fill="midnightblue" stroke="midnightblue" points="283.511,-309.684 279.785,-299.767 276.513,-309.844 283.511,-309.684"/>
</g>
<!-- Node14 -->
<g id="node14" class="node"><title>Node14</title>
<g id="a_node14"><a xlink:href="$monitor_8h.html" xlink:title="Monitor. ">
<polygon fill="white" stroke="black" points="136.5,-336.5 136.5,-355.5 193.5,-355.5 193.5,-336.5 136.5,-336.5"/>
<text text-anchor="middle" x="165" y="-343.5" font-family="Helvetica,sans-Serif" font-size="10.00">monitor.h</text>
</a>
</g>
</g>
<!-- Node4&#45;&gt;Node14 -->
<g id="edge15" class="edge"><title>Node4&#45;&gt;Node14</title>
<path fill="none" stroke="midnightblue" d="M195.055,-392.083C190.023,-384.534 182.663,-373.495 176.487,-364.23"/>
<polygon fill="midnightblue" stroke="midnightblue" points="179.293,-362.13 170.834,-355.751 173.469,-366.013 179.293,-362.13"/>
</g>
<!-- Node17 -->
<g id="node17" class="node"><title>Node17</title>
<g id="a_node17"><a xlink:href="$poller_8h.html" xlink:title="Poller. ">
<polygon fill="white" stroke="black" points="212,-336.5 212,-355.5 260,-355.5 260,-336.5 212,-336.5"/>
<text text-anchor="middle" x="236" y="-343.5" font-family="Helvetica,sans-Serif" font-size="10.00">poller.h</text>
</a>
</g>
</g>
<!-- Node4&#45;&gt;Node17 -->
<g id="edge20" class="edge"><title>Node4&#45;&gt;Node17</title>
<path fill="none" stroke="midnightblue" d="M206.78,-392.083C211.672,-384.534 218.827,-373.495 224.833,-364.23"/>
<polygon fill="midnightblue" stroke="midnightblue" points="227.826,-366.046 230.328,-355.751 221.952,-362.239 227.826,-366.046"/>
</g>
<!-- Node18 -->
<g id="node18" class="node"><title>Node18</title>
<g id="a_node18"><a xlink:href="$version_8h.html" xlink:title="Version information. ">
<polygon fill="white" stroke="black" points="298,-224.5 298,-243.5 354,-243.5 354,-224.5 298,-224.5"/>
<text text-anchor="middle" x="326" y="-231.5" font-family="Helvetica,sans-Serif" font-size="10.00">version.h</text>
</a>
</g>
</g>
<!-- Node4&#45;&gt;Node18 -->
<g id="edge22" class="edge"><title>Node4&#45;&gt;Node18</title>
<path fill="none" stroke="midnightblue" d="M229.333,-392.392C248.07,-385.363 271.879,-373.667 287,-356 312.503,-326.203 321.392,-279.47 324.444,-253.67"/>
<polygon fill="midnightblue" stroke="midnightblue" points="327.927,-254.016 325.45,-243.715 320.962,-253.312 327.927,-254.016"/>
</g>
<!-- Node7 -->
<g id="node7" class="node"><title>Node7</title>
<g id="a_node7"><a xlink:href="$dict__labels_8h.html" xlink:title="Labels dictionary. ">
<polygon fill="white" stroke="black" points="132.5,-112.5 132.5,-131.5 203.5,-131.5 203.5,-112.5 132.5,-112.5"/>
<text text-anchor="middle" x="168" y="-119.5" font-family="Helvetica,sans-Serif" font-size="10.00">dict_labels.h</text>
</a>
</g>
</g>
<!-- Node6&#45;&gt;Node7 -->
<g id="edge6" class="edge"><title>Node6&#45;&gt;Node7</title>
<path fill="none" stroke="midnightblue" d="M142.197,-224.368C146.716,-206.617 157.139,-165.666 163.266,-141.597"/>
<polygon fill="midnightblue" stroke="midnightblue" points="166.738,-142.146 165.813,-131.591 159.954,-140.419 166.738,-142.146"/>
</g>
<!-- Node12 -->
<g id="node12" class="node"><title>Node12</title>
<g id="a_node12"><a xlink:href="$registers_8h.html" xlink:title="Registers. ">
<polygon fill="white" stroke="black" points="80,-168.5 80,-187.5 142,-187.5 142,-168.5 80,-168.5"/>
<text text-anchor="middle" x="111" y="-175.5" font-family="Helvetica,sans-Serif" font-size="10.00">registers.h</text>
</a>
</g>
</g>
<!-- Node6&#45;&gt;Node12 -->
<g id="edge11" class="edge"><title>Node6&#45;&gt;Node12</title>
<path fill="none" stroke="midnightblue" d="M135.211,-224.083C131.242,-216.691 125.475,-205.953 120.565,-196.811"/>
<polygon fill="midnightblue" stroke="midnightblue" points="123.514,-194.905 115.7,-187.751 117.347,-198.217 123.514,-194.905"/>
</g>
<!-- Node8 -->
<g id="node8" class="node"><title>Node8</title>
<g id="a_node8"><a xlink:href="$common_8h.html" xlink:title="Common. ">
<polygon fill="white" stroke="black" points="220,-56.5 220,-75.5 282,-75.5 282,-56.5 220,-56.5"/>
<text text-anchor="middle" x="251" y="-63.5" font-family="Helvetica,sans-Serif" font-size="10.00">common.h</text>
</a>
</g>
</g>
<!-- Node7&#45;&gt;Node8 -->
<g id="edge7" class="edge"><title>Node7&#45;&gt;Node8</title>
<path fill="none" stroke="midnightblue" d="M181.335,-112.324C194.162,-103.979 213.785,-91.2122 228.94,-81.3524"/>
<polygon fill="midnightblue" stroke="midnightblue" points="231.224,-84.0417 237.698,-75.6545 227.407,-78.1742 231.224,-84.0417"/>
</g>
<!-- Node9 -->
<g id="node9" class="node"><title>Node9</title>
<polygon fill="white" stroke="#bfbfbf" points="157.5,-0.5 157.5,-19.5 208.5,-19.5 208.5,-0.5 157.5,-0.5"/>
<text text-anchor="middle" x="183" y="-7.5" font-family="Helvetica,sans-Serif" font-size="10.00">config.h</text>
</g>
<!-- Node8&#45;&gt;Node9 -->
<g id="edge8" class="edge"><title>Node8&#45;&gt;Node9</title>
<path fill="none" stroke="midnightblue" d="M240.075,-56.324C229.825,-48.1849 214.279,-35.8395 201.999,-26.0874"/>
<polygon fill="midnightblue" stroke="midnightblue" points="204.132,-23.3119 194.124,-19.8339 199.779,-28.7937 204.132,-23.3119"/>
</g>
<!-- Node10 -->
<g id="node10" class="node"><title>Node10</title>
<polygon fill="white" stroke="#bfbfbf" points="227,-0.5 227,-19.5 275,-19.5 275,-0.5 227,-0.5"/>
<text text-anchor="middle" x="251" y="-7.5" font-family="Helvetica,sans-Serif" font-size="10.00">stdlib.h</text>
</g>
<!-- Node8&#45;&gt;Node10 -->
<g id="edge9" class="edge"><title>Node8&#45;&gt;Node10</title>
<path fill="none" stroke="midnightblue" d="M251,-56.083C251,-49.0059 251,-38.8611 251,-29.9865"/>
<polygon fill="midnightblue" stroke="midnightblue" points="254.5,-29.751 251,-19.7511 247.5,-29.7511 254.5,-29.751"/>
</g>
<!-- Node11 -->
<g id="node11" class="node"><title>Node11</title>
<polygon fill="white" stroke="#bfbfbf" points="293.5,-0.5 293.5,-19.5 342.5,-19.5 342.5,-0.5 293.5,-0.5"/>
<text text-anchor="middle" x="318" y="-7.5" font-family="Helvetica,sans-Serif" font-size="10.00">stdint.h</text>
</g>
<!-- Node8&#45;&gt;Node11 -->
<g id="edge10" class="edge"><title>Node8&#45;&gt;Node11</title>
<path fill="none" stroke="midnightblue" d="M261.765,-56.324C271.766,-48.2631 286.887,-36.0765 298.93,-26.3695"/>
<polygon fill="midnightblue" stroke="midnightblue" points="301.45,-28.8343 307.039,-19.8339 297.057,-23.3841 301.45,-28.8343"/>
</g>
<!-- Node12&#45;&gt;Node7 -->
<g id="edge12" class="edge"><title>Node12&#45;&gt;Node7</title>
<path fill="none" stroke="midnightblue" d="M120.158,-168.324C128.501,-160.42 141.032,-148.548 151.177,-138.938"/>
<polygon fill="midnightblue" stroke="midnightblue" points="153.823,-141.252 158.675,-131.834 149.009,-136.171 153.823,-141.252"/>
</g>
<!-- Node13&#45;&gt;Node8 -->
<g id="edge14" class="edge"><title>Node13&#45;&gt;Node8</title>
<path fill="none" stroke="midnightblue" d="M277.902,-280.297C273.782,-247.633 259.181,-131.866 253.391,-85.9573"/>
<polygon fill="midnightblue" stroke="midnightblue" points="256.844,-85.3671 252.12,-75.8837 249.899,-86.2431 256.844,-85.3671"/>
</g>
<!-- Node15 -->
<g id="node15" class="node"><title>Node15</title>
<g id="a_node15"><a xlink:href="$servo_8h.html" xlink:title="Servo. ">
<polygon fill="white" stroke="black" points="191.5,-280.5 191.5,-299.5 240.5,-299.5 240.5,-280.5 191.5,-280.5"/>
<text text-anchor="middle" x="216" y="-287.5" font-family="Helvetica,sans-Serif" font-size="10.00">servo.h</text>
</a>
</g>
</g>
<!-- Node14&#45;&gt;Node15 -->
<g id="edge16" class="edge"><title>Node14&#45;&gt;Node15</title>
<path fill="none" stroke="midnightblue" d="M173.422,-336.083C180.848,-328.22 191.852,-316.569 200.812,-307.081"/>
<polygon fill="midnightblue" stroke="midnightblue" points="203.413,-309.424 207.735,-299.751 198.324,-304.618 203.413,-309.424"/>
</g>
<!-- Node15&#45;&gt;Node6 -->
<g id="edge19" class="edge"><title>Node15&#45;&gt;Node6</title>
<path fill="none" stroke="midnightblue" d="M203.789,-280.324C192.224,-272.107 174.625,-259.602 160.839,-249.807"/>
<polygon fill="midnightblue" stroke="midnightblue" points="162.612,-246.773 152.433,-243.834 158.557,-252.479 162.612,-246.773"/>
</g>
<!-- Node16 -->
<g id="node16" class="node"><title>Node16</title>
<g id="a_node16"><a xlink:href="$net_8h.html" xlink:title="Network. ">
<polygon fill="white" stroke="black" points="200,-168.5 200,-187.5 238,-187.5 238,-168.5 200,-168.5"/>
<text text-anchor="middle" x="219" y="-175.5" font-family="Helvetica,sans-Serif" font-size="10.00">net.h</text>
</a>
</g>
</g>
<!-- Node15&#45;&gt;Node16 -->
<g id="edge17" class="edge"><title>Node15&#45;&gt;Node16</title>
<path fill="none" stroke="midnightblue" d="M216.235,-280.368C216.72,-262.617 217.836,-221.666 218.493,-197.597"/>
<polygon fill="midnightblue" stroke="midnightblue" points="221.992,-197.683 218.766,-187.591 214.994,-197.492 221.992,-197.683"/>
</g>
<!-- Node16&#45;&gt;Node8 -->
<g id="edge18" class="edge"><title>Node16&#45;&gt;Node8</title>
<path fill="none" stroke="midnightblue" d="M221.511,-168.368C226.698,-150.537 238.696,-109.295 245.685,-85.2717"/>
<polygon fill="midnightblue" stroke="midnightblue" points="249.068,-86.1711 248.501,-75.5914 242.347,-84.2157 249.068,-86.1711"/>
</g>
<!-- Node17&#45;&gt;Node15 -->
<g id="edge21" class="edge"><title>Node17&#45;&gt;Node15</title>
<path fill="none" stroke="midnightblue" d="M232.697,-336.083C230.018,-328.849 226.151,-318.409 222.814,-309.397"/>
<polygon fill="midnightblue" stroke="midnightblue" points="225.996,-307.913 219.241,-299.751 219.432,-310.344 225.996,-307.913"/>
</g>
<!-- Node18&#45;&gt;Node8 -->
<g id="edge23" class="edge"><title>Node18&#45;&gt;Node8</title>
<path fill="none" stroke="midnightblue" d="M323.969,-224.428C318.958,-204.115 304.878,-151.771 284,-112 278.775,-102.047 271.507,-91.8718 265.122,-83.7206"/>
<polygon fill="midnightblue" stroke="midnightblue" points="267.695,-81.3376 258.677,-75.7763 262.259,-85.7474 267.695,-81.3376"/>
</g>
</g>
</svg>
