<?xml version="1.0" encoding="UTF-8" standalone="no"?>
<!DOCTYPE svg PUBLIC "-//W3C//DTD SVG 1.1//EN"
 "http://www.w3.org/Graphics/SVG/1.1/DTD/svg11.dtd">
<!-- Generated by graphviz version 2.38.0 (20140413.2041)
 -->
<!-- Title: Constants Pages: 1 -->
<svg width="336pt" height="442pt"
 viewBox="0.00 0.00 336.00 441.50" xmlns="http://www.w3.org/2000/svg" xmlns:xlink="http://www.w3.org/1999/xlink">
<g id="graph0" class="graph" transform="scale(1 1) rotate(0) translate(4 437.5)">
<title>Constants</title>
<polygon fill="white" stroke="none" points="-4,4 -4,-437.5 332,-437.5 332,4 -4,4"/>
<!-- Node3 -->
<g id="node1" class="node"><title>Node3</title>
<g id="a_node1"><a xlink:href="$group__IL__CONST__SIGNATURES.html" xlink:title="Signatures">
<polygon fill="white" stroke="black" points="232.5,-414 232.5,-433 295.5,-433 295.5,-414 232.5,-414"/>
<text text-anchor="middle" x="264" y="-421" font-family="Helvetica,sans-Serif" font-size="10.00">Signatures</text>
</a>
</g>
</g>
<!-- Node1 -->
<g id="node2" class="node"><title>Node1</title>
<g id="a_node2"><a xlink:href="$group__IL.html" xlink:title="IngeniaLink">
<polygon fill="white" stroke="black" points="0,-224 0,-243 66,-243 66,-224 0,-224"/>
<text text-anchor="middle" x="33" y="-231" font-family="Helvetica,sans-Serif" font-size="10.00">IngeniaLink</text>
</a>
</g>
</g>
<!-- Node0 -->
<g id="node7" class="node"><title>Node0</title>
<polygon fill="#bfbfbf" stroke="black" points="102,-224 102,-243 164,-243 164,-224 102,-224"/>
<text text-anchor="middle" x="133" y="-231" font-family="Helvetica,sans-Serif" font-size="10.00">Constants</text>
</g>
<!-- Node1&#45;&gt;Node0 -->
<g id="edge1" class="edge"><title>Node1&#45;&gt;Node0</title>
<path fill="none" stroke="black" d="M76.3435,-233.5C84.9227,-233.5 93.7792,-233.5 101.835,-233.5"/>
<polygon fill="black" stroke="black" points="76.0889,-230 66.0889,-233.5 76.0888,-237 76.0889,-230"/>
</g>
<!-- Node6 -->
<g id="node3" class="node"><title>Node6</title>
<g id="a_node3"><a xlink:href="$group__IL__CONST__FB.html" xlink:title="Feedbacks">
<polygon fill="white" stroke="black" points="231.5,-376 231.5,-395 296.5,-395 296.5,-376 231.5,-376"/>
<text text-anchor="middle" x="264" y="-383" font-family="Helvetica,sans-Serif" font-size="10.00">Feedbacks</text>
</a>
</g>
</g>
<!-- Node2 -->
<g id="node4" class="node"><title>Node2</title>
<g id="a_node4"><a xlink:href="$group__IL__CONST__SYS.html" xlink:title="System">
<polygon fill="white" stroke="black" points="239,-338 239,-357 289,-357 289,-338 239,-338"/>
<text text-anchor="middle" x="264" y="-345" font-family="Helvetica,sans-Serif" font-size="10.00">System</text>
</a>
</g>
</g>
<!-- Node4 -->
<g id="node5" class="node"><title>Node4</title>
<g id="a_node5"><a xlink:href="$group__IL__CONST__OP__MODE.html" xlink:title="Operation modes">
<polygon fill="white" stroke="black" points="218.5,-300 218.5,-319 309.5,-319 309.5,-300 218.5,-300"/>
<text text-anchor="middle" x="264" y="-307" font-family="Helvetica,sans-Serif" font-size="10.00">Operation modes</text>
</a>
</g>
</g>
<!-- Node7 -->
<g id="node6" class="node"><title>Node7</title>
<g id="a_node6"><a xlink:href="$group__IL__CONST__VEL__SENSOR.html" xlink:title="Velocity sensors">
<polygon fill="white" stroke="black" points="219.5,-262 219.5,-281 308.5,-281 308.5,-262 219.5,-262"/>
<text text-anchor="middle" x="264" y="-269" font-family="Helvetica,sans-Serif" font-size="10.00">Velocity sensors</text>
</a>
</g>
</g>
<!-- Node0&#45;&gt;Node3 -->
<g id="edge3" class="edge"><title>Node0&#45;&gt;Node3</title>
<path fill="none" stroke="black" d="M136.029,-253.319C140.723,-288.8 155.573,-363.304 200,-404.5 208.796,-412.656 220.975,-417.318 232.282,-419.98"/>
<polygon fill="black" stroke="black" points="139.49,-252.78 134.837,-243.262 132.538,-253.604 139.49,-252.78"/>
</g>
<!-- Node0&#45;&gt;Node6 -->
<g id="edge6" class="edge"><title>Node0&#45;&gt;Node6</title>
<path fill="none" stroke="black" d="M138.401,-252.931C145.969,-281.906 164.208,-336.259 200,-366.5 208.814,-373.947 220.479,-378.475 231.374,-381.228"/>
<polygon fill="black" stroke="black" points="141.789,-252.051 136.009,-243.172 134.99,-253.718 141.789,-252.051"/>
</g>
<!-- Node0&#45;&gt;Node2 -->
<g id="edge2" class="edge"><title>Node0&#45;&gt;Node2</title>
<path fill="none" stroke="black" d="M142.295,-252.299C152.729,-273.813 172.648,-308.63 200,-328.5 211.368,-336.759 226.356,-341.467 238.861,-344.131"/>
<polygon fill="black" stroke="black" points="145.45,-250.782 138.059,-243.191 139.102,-253.734 145.45,-250.782"/>
</g>
<!-- Node0&#45;&gt;Node4 -->
<g id="edge4" class="edge"><title>Node0&#45;&gt;Node4</title>
<path fill="none" stroke="black" d="M149.85,-250.629C162.376,-263.253 180.882,-279.991 200,-290.5 206.908,-294.297 214.668,-297.428 222.321,-299.975"/>
<polygon fill="black" stroke="black" points="152.332,-248.161 142.871,-243.392 147.293,-253.02 152.332,-248.161"/>
</g>
<!-- Node0&#45;&gt;Node7 -->
<g id="edge7" class="edge"><title>Node0&#45;&gt;Node7</title>
<path fill="none" stroke="black" d="M174.006,-245.285C192.225,-250.652 213.507,-256.921 230.69,-261.982"/>
<polygon fill="black" stroke="black" points="174.826,-241.878 164.245,-242.409 172.848,-248.592 174.826,-241.878"/>
</g>
<!-- Node8 -->
<g id="node8" class="node"><title>Node8</title>
<g id="a_node8"><a xlink:href="$group__IL__CONST__POS__SENSOR.html" xlink:title="Position sensors">
<polygon fill="white" stroke="black" points="219.5,-224 219.5,-243 308.5,-243 308.5,-224 219.5,-224"/>
<text text-anchor="middle" x="264" y="-231" font-family="Helvetica,sans-Serif" font-size="10.00">Position sensors</text>
</a>
</g>
</g>
<!-- Node0&#45;&gt;Node8 -->
<g id="edge8" class="edge"><title>Node0&#45;&gt;Node8</title>
<path fill="none" stroke="black" d="M174.271,-233.5C188.557,-233.5 204.7,-233.5 219.262,-233.5"/>
<polygon fill="black" stroke="black" points="174.245,-230 164.245,-233.5 174.245,-237 174.245,-230"/>
</g>
<!-- Node12 -->
<g id="node9" class="node"><title>Node12</title>
<g id="a_node9"><a xlink:href="$group__IL__CONST__CMD__SRC.html" xlink:title="Command sources">
<polygon fill="white" stroke="black" points="214.5,-186 214.5,-205 313.5,-205 313.5,-186 214.5,-186"/>
<text text-anchor="middle" x="264" y="-193" font-family="Helvetica,sans-Serif" font-size="10.00">Command sources</text>
</a>
</g>
</g>
<!-- Node0&#45;&gt;Node12 -->
<g id="edge12" class="edge"><title>Node0&#45;&gt;Node12</title>
<path fill="none" stroke="black" d="M174.006,-221.715C192.225,-216.348 213.507,-210.079 230.69,-205.018"/>
<polygon fill="black" stroke="black" points="172.848,-218.408 164.245,-224.591 174.826,-225.122 172.848,-218.408"/>
</g>
<!-- Node5 -->
<g id="node10" class="node"><title>Node5</title>
<g id="a_node10"><a xlink:href="$group__IL__CONST__MOTOR.html" xlink:title="Motor types">
<polygon fill="white" stroke="black" points="230,-148 230,-167 298,-167 298,-148 230,-148"/>
<text text-anchor="middle" x="264" y="-155" font-family="Helvetica,sans-Serif" font-size="10.00">Motor types</text>
</a>
</g>
</g>
<!-- Node0&#45;&gt;Node5 -->
<g id="edge5" class="edge"><title>Node0&#45;&gt;Node5</title>
<path fill="none" stroke="black" d="M149.85,-216.371C162.376,-203.747 180.882,-187.009 200,-176.5 209.21,-171.437 219.937,-167.559 229.901,-164.668"/>
<polygon fill="black" stroke="black" points="147.293,-213.98 142.871,-223.608 152.332,-218.839 147.293,-213.98"/>
</g>
<!-- Node9 -->
<g id="node11" class="node"><title>Node9</title>
<g id="a_node11"><a xlink:href="$group__IL__CONST__IANGLE__METHOD.html" xlink:title="Initial angle determination\l methods">
<polygon fill="white" stroke="black" points="200,-98.5 200,-128.5 328,-128.5 328,-98.5 200,-98.5"/>
<text text-anchor="start" x="208" y="-116.5" font-family="Helvetica,sans-Serif" font-size="10.00">Initial angle determination</text>
<text text-anchor="middle" x="264" y="-105.5" font-family="Helvetica,sans-Serif" font-size="10.00"> methods</text>
</a>
</g>
</g>
<!-- Node0&#45;&gt;Node9 -->
<g id="edge9" class="edge"><title>Node0&#45;&gt;Node9</title>
<path fill="none" stroke="black" d="M142.913,-214.488C153.713,-193.306 173.771,-159.31 200,-138.5 204.794,-134.697 210.239,-131.407 215.874,-128.58"/>
<polygon fill="black" stroke="black" points="139.634,-213.224 138.368,-223.743 145.917,-216.31 139.634,-213.224"/>
</g>
<!-- Node10 -->
<g id="node12" class="node"><title>Node10</title>
<g id="a_node12"><a xlink:href="$group__IL__CONST__DENC__SINCOS__PARAM.html" xlink:title="Digital encoder / SinCos\l parameters">
<polygon fill="white" stroke="black" points="202.5,-49.5 202.5,-79.5 325.5,-79.5 325.5,-49.5 202.5,-49.5"/>
<text text-anchor="start" x="210.5" y="-67.5" font-family="Helvetica,sans-Serif" font-size="10.00">Digital encoder / SinCos</text>
<text text-anchor="middle" x="264" y="-56.5" font-family="Helvetica,sans-Serif" font-size="10.00"> parameters</text>
</a>
</g>
</g>
<!-- Node0&#45;&gt;Node10 -->
<g id="edge10" class="edge"><title>Node0&#45;&gt;Node10</title>
<path fill="none" stroke="black" d="M137.879,-213.988C144.963,-183.233 162.823,-123.4 200,-88.5 203.669,-85.0554 207.883,-82.0909 212.356,-79.5423"/>
<polygon fill="black" stroke="black" points="134.427,-213.391 135.74,-223.904 141.27,-214.866 134.427,-213.391"/>
</g>
<!-- Node11 -->
<g id="node13" class="node"><title>Node11</title>
<g id="a_node13"><a xlink:href="$group__IL__CONST__DSIG__INJ.html" xlink:title="Disturbance signal\l injection points">
<polygon fill="white" stroke="black" points="215,-0.5 215,-30.5 313,-30.5 313,-0.5 215,-0.5"/>
<text text-anchor="start" x="223" y="-18.5" font-family="Helvetica,sans-Serif" font-size="10.00">Disturbance signal</text>
<text text-anchor="middle" x="264" y="-7.5" font-family="Helvetica,sans-Serif" font-size="10.00"> injection points</text>
</a>
</g>
</g>
<!-- Node0&#45;&gt;Node11 -->
<g id="edge11" class="edge"><title>Node0&#45;&gt;Node11</title>
<path fill="none" stroke="black" d="M135.311,-213.578C138.897,-174.916 152.1,-89.1589 200,-39.5 204.225,-35.1195 209.333,-31.5284 214.791,-28.5866"/>
<polygon fill="black" stroke="black" points="131.788,-213.725 134.479,-223.973 138.765,-214.284 131.788,-213.725"/>
</g>
</g>
</svg>
