<?xml version="1.0" encoding="UTF-8" standalone="no"?>
<!DOCTYPE svg PUBLIC "-//W3C//DTD SVG 1.1//EN"
 "http://www.w3.org/Graphics/SVG/1.1/DTD/svg11.dtd">
<!-- Generated by graphviz version 2.38.0 (20140413.2041)
 -->
<!-- Title: IngeniaLink Pages: 1 -->
<svg width="211pt" height="370pt"
 viewBox="0.00 0.00 211.00 370.00" xmlns="http://www.w3.org/2000/svg" xmlns:xlink="http://www.w3.org/1999/xlink">
<g id="graph0" class="graph" transform="scale(1 1) rotate(0) translate(4 366)">
<title>IngeniaLink</title>
<polygon fill="white" stroke="none" points="-4,4 -4,-366 207,-366 207,4 -4,4"/>
<!-- Node9 -->
<g id="node1" class="node"><title>Node9</title>
<g id="a_node1"><a xlink:href="$group__IL__SERVO.html" xlink:title="Servo">
<polygon fill="white" stroke="black" points="131.5,-342.5 131.5,-361.5 173.5,-361.5 173.5,-342.5 131.5,-342.5"/>
<text text-anchor="middle" x="152.5" y="-349.5" font-family="Helvetica,sans-Serif" font-size="10.00">Servo</text>
</a>
</g>
</g>
<!-- Node4 -->
<g id="node2" class="node"><title>Node4</title>
<g id="a_node2"><a xlink:href="$group__IL__ERR.html" xlink:title="Error reporting">
<polygon fill="white" stroke="black" points="113.5,-304.5 113.5,-323.5 191.5,-323.5 191.5,-304.5 113.5,-304.5"/>
<text text-anchor="middle" x="152.5" y="-311.5" font-family="Helvetica,sans-Serif" font-size="10.00">Error reporting</text>
</a>
</g>
</g>
<!-- Node7 -->
<g id="node3" class="node"><title>Node7</title>
<g id="a_node3"><a xlink:href="$group__IL__POLLER.html" xlink:title="Poller">
<polygon fill="white" stroke="black" points="132,-266.5 132,-285.5 173,-285.5 173,-266.5 132,-266.5"/>
<text text-anchor="middle" x="152.5" y="-273.5" font-family="Helvetica,sans-Serif" font-size="10.00">Poller</text>
</a>
</g>
</g>
<!-- Node6 -->
<g id="node4" class="node"><title>Node6</title>
<g id="a_node4"><a xlink:href="$group__IL__NET.html" xlink:title="Network">
<polygon fill="white" stroke="black" points="126,-228.5 126,-247.5 179,-247.5 179,-228.5 126,-228.5"/>
<text text-anchor="middle" x="152.5" y="-235.5" font-family="Helvetica,sans-Serif" font-size="10.00">Network</text>
</a>
</g>
</g>
<!-- Node2 -->
<g id="node5" class="node"><title>Node2</title>
<g id="a_node5"><a xlink:href="$group__IL__DICT.html" xlink:title="Dictionary">
<polygon fill="white" stroke="black" points="122,-190.5 122,-209.5 183,-209.5 183,-190.5 122,-190.5"/>
<text text-anchor="middle" x="152.5" y="-197.5" font-family="Helvetica,sans-Serif" font-size="10.00">Dictionary</text>
</a>
</g>
</g>
<!-- Node0 -->
<g id="node6" class="node"><title>Node0</title>
<polygon fill="#bfbfbf" stroke="black" points="0,-171.5 0,-190.5 66,-190.5 66,-171.5 0,-171.5"/>
<text text-anchor="middle" x="33" y="-178.5" font-family="Helvetica,sans-Serif" font-size="10.00">IngeniaLink</text>
</g>
<!-- Node0&#45;&gt;Node9 -->
<g id="edge9" class="edge"><title>Node0&#45;&gt;Node9</title>
<path fill="none" stroke="black" d="M37.7088,-200.553C44.7423,-232.495 62.9492,-296.009 102,-333 110.019,-340.596 121.397,-345.246 131.223,-348.042"/>
<polygon fill="black" stroke="black" points="41.1178,-199.754 35.6711,-190.666 34.2619,-201.167 41.1178,-199.754"/>
</g>
<!-- Node0&#45;&gt;Node4 -->
<g id="edge4" class="edge"><title>Node0&#45;&gt;Node4</title>
<path fill="none" stroke="black" d="M40.8489,-200.216C50.6998,-225.292 71.1476,-269.028 102,-295 106.577,-298.853 112.021,-301.975 117.597,-304.488"/>
<polygon fill="black" stroke="black" points="44.0728,-198.845 37.2764,-190.718 37.5209,-201.31 44.0728,-198.845"/>
</g>
<!-- Node0&#45;&gt;Node7 -->
<g id="edge7" class="edge"><title>Node0&#45;&gt;Node7</title>
<path fill="none" stroke="black" d="M46.391,-199.247C58.7416,-216.23 79.1256,-241.226 102,-257 110.942,-263.166 122.158,-267.685 131.651,-270.764"/>
<polygon fill="black" stroke="black" points="49.017,-196.898 40.3913,-190.746 43.2979,-200.935 49.017,-196.898"/>
</g>
<!-- Node0&#45;&gt;Node6 -->
<g id="edge6" class="edge"><title>Node0&#45;&gt;Node6</title>
<path fill="none" stroke="black" d="M58.2629,-195.673C71.045,-203.116 87.119,-212.03 102,-219 109.586,-222.553 118.033,-225.981 125.771,-228.924"/>
<polygon fill="black" stroke="black" points="59.9927,-192.63 49.6015,-190.562 56.4355,-198.659 59.9927,-192.63"/>
</g>
<!-- Node0&#45;&gt;Node2 -->
<g id="edge2" class="edge"><title>Node0&#45;&gt;Node2</title>
<path fill="none" stroke="black" d="M76.2542,-187.833C91.3549,-190.274 108.038,-192.972 121.85,-195.205"/>
<polygon fill="black" stroke="black" points="76.5379,-184.333 66.1074,-186.192 75.4204,-191.243 76.5379,-184.333"/>
</g>
<!-- Node10 -->
<g id="node7" class="node"><title>Node10</title>
<g id="a_node7"><a xlink:href="$group__IL__VERSION.html" xlink:title="Version information">
<polygon fill="white" stroke="black" points="102,-152.5 102,-171.5 203,-171.5 203,-152.5 102,-152.5"/>
<text text-anchor="middle" x="152.5" y="-159.5" font-family="Helvetica,sans-Serif" font-size="10.00">Version information</text>
</a>
</g>
</g>
<!-- Node0&#45;&gt;Node10 -->
<g id="edge10" class="edge"><title>Node0&#45;&gt;Node10</title>
<path fill="none" stroke="black" d="M75.9991,-174.209C84.3506,-172.858 93.1948,-171.428 101.776,-170.04"/>
<polygon fill="black" stroke="black" points="75.4204,-170.757 66.1074,-175.808 76.5379,-177.667 75.4204,-170.757"/>
</g>
<!-- Node3 -->
<g id="node8" class="node"><title>Node3</title>
<g id="a_node8"><a xlink:href="$group__IL__DICT__LABELS.html" xlink:title="Labels dictionary">
<polygon fill="white" stroke="black" points="107.5,-114.5 107.5,-133.5 197.5,-133.5 197.5,-114.5 107.5,-114.5"/>
<text text-anchor="middle" x="152.5" y="-121.5" font-family="Helvetica,sans-Serif" font-size="10.00">Labels dictionary</text>
</a>
</g>
</g>
<!-- Node0&#45;&gt;Node3 -->
<g id="edge3" class="edge"><title>Node0&#45;&gt;Node3</title>
<path fill="none" stroke="black" d="M58.2629,-166.327C71.045,-158.884 87.119,-149.97 102,-143 109.169,-139.642 117.107,-136.396 124.49,-133.566"/>
<polygon fill="black" stroke="black" points="56.4355,-163.341 49.6015,-171.438 59.9927,-169.37 56.4355,-163.341"/>
</g>
<!-- Node5 -->
<g id="node9" class="node"><title>Node5</title>
<g id="a_node9"><a xlink:href="$group__IL__MONITOR.html" xlink:title="Monitor">
<polygon fill="white" stroke="black" points="128,-76.5 128,-95.5 177,-95.5 177,-76.5 128,-76.5"/>
<text text-anchor="middle" x="152.5" y="-83.5" font-family="Helvetica,sans-Serif" font-size="10.00">Monitor</text>
</a>
</g>
</g>
<!-- Node0&#45;&gt;Node5 -->
<g id="edge5" class="edge"><title>Node0&#45;&gt;Node5</title>
<path fill="none" stroke="black" d="M46.391,-162.753C58.7416,-145.77 79.1256,-120.774 102,-105 109.805,-99.6176 119.343,-95.4906 127.955,-92.4802"/>
<polygon fill="black" stroke="black" points="43.2979,-161.065 40.3913,-171.254 49.017,-165.102 43.2979,-161.065"/>
</g>
<!-- Node1 -->
<g id="node10" class="node"><title>Node1</title>
<g id="a_node10"><a xlink:href="$group__IL__CONST.html" xlink:title="Constants">
<polygon fill="white" stroke="black" points="121.5,-38.5 121.5,-57.5 183.5,-57.5 183.5,-38.5 121.5,-38.5"/>
<text text-anchor="middle" x="152.5" y="-45.5" font-family="Helvetica,sans-Serif" font-size="10.00">Constants</text>
</a>
</g>
</g>
<!-- Node0&#45;&gt;Node1 -->
<g id="edge1" class="edge"><title>Node0&#45;&gt;Node1</title>
<path fill="none" stroke="black" d="M40.8489,-161.784C50.6998,-136.708 71.1476,-92.9724 102,-67 107.634,-62.2575 114.58,-58.6236 121.469,-55.8685"/>
<polygon fill="black" stroke="black" points="37.5209,-160.69 37.2764,-171.282 44.0728,-163.155 37.5209,-160.69"/>
</g>
<!-- Node8 -->
<g id="node11" class="node"><title>Node8</title>
<g id="a_node11"><a xlink:href="$group__IL__REGS.html" xlink:title="Registers">
<polygon fill="white" stroke="black" points="123,-0.5 123,-19.5 182,-19.5 182,-0.5 123,-0.5"/>
<text text-anchor="middle" x="152.5" y="-7.5" font-family="Helvetica,sans-Serif" font-size="10.00">Registers</text>
</a>
</g>
</g>
<!-- Node0&#45;&gt;Node8 -->
<g id="edge8" class="edge"><title>Node0&#45;&gt;Node8</title>
<path fill="none" stroke="black" d="M37.7088,-161.447C44.7423,-129.505 62.9492,-65.9908 102,-29 107.814,-23.4926 115.393,-19.5342 122.867,-16.7079"/>
<polygon fill="black" stroke="black" points="34.2619,-160.833 35.6711,-171.334 41.1178,-162.246 34.2619,-160.833"/>
</g>
</g>
</svg>
