<?xml version="1.0" encoding="UTF-8" standalone="no"?>
<!DOCTYPE svg PUBLIC "-//W3C//DTD SVG 1.1//EN"
 "http://www.w3.org/Graphics/SVG/1.1/DTD/svg11.dtd">
<!-- Generated by graphviz version 2.38.0 (20140413.2041)
 -->
<!-- Title: ingenialink/monitor.h Pages: 1 -->
<svg width="208pt" height="364pt"
 viewBox="0.00 0.00 207.50 364.00" xmlns="http://www.w3.org/2000/svg" xmlns:xlink="http://www.w3.org/1999/xlink">
<g id="graph0" class="graph" transform="scale(1 1) rotate(0) translate(4 360)">
<title>ingenialink/monitor.h</title>
<polygon fill="white" stroke="none" points="-4,4 -4,-360 203.5,-360 203.5,4 -4,4"/>
<!-- Node1 -->
<g id="node1" class="node"><title>Node1</title>
<polygon fill="#bfbfbf" stroke="black" points="32.5,-336.5 32.5,-355.5 138.5,-355.5 138.5,-336.5 32.5,-336.5"/>
<text text-anchor="middle" x="85.5" y="-343.5" font-family="Helvetica,sans-Serif" font-size="10.00">ingenialink/monitor.h</text>
</g>
<!-- Node2 -->
<g id="node2" class="node"><title>Node2</title>
<g id="a_node2"><a xlink:href="$servo_8h.html" xlink:title="Servo. ">
<polygon fill="white" stroke="black" points="61,-280.5 61,-299.5 110,-299.5 110,-280.5 61,-280.5"/>
<text text-anchor="middle" x="85.5" y="-287.5" font-family="Helvetica,sans-Serif" font-size="10.00">servo.h</text>
</a>
</g>
</g>
<!-- Node1&#45;&gt;Node2 -->
<g id="edge1" class="edge"><title>Node1&#45;&gt;Node2</title>
<path fill="none" stroke="midnightblue" d="M85.5,-336.083C85.5,-329.006 85.5,-318.861 85.5,-309.986"/>
<polygon fill="midnightblue" stroke="midnightblue" points="89.0001,-309.751 85.5,-299.751 82.0001,-309.751 89.0001,-309.751"/>
</g>
<!-- Node3 -->
<g id="node3" class="node"><title>Node3</title>
<g id="a_node3"><a xlink:href="$net_8h.html" xlink:title="Network. ">
<polygon fill="white" stroke="black" points="42.5,-168.5 42.5,-187.5 80.5,-187.5 80.5,-168.5 42.5,-168.5"/>
<text text-anchor="middle" x="61.5" y="-175.5" font-family="Helvetica,sans-Serif" font-size="10.00">net.h</text>
</a>
</g>
</g>
<!-- Node2&#45;&gt;Node3 -->
<g id="edge2" class="edge"><title>Node2&#45;&gt;Node3</title>
<path fill="none" stroke="midnightblue" d="M83.6168,-280.368C79.7437,-262.617 70.809,-221.666 65.5576,-197.597"/>
<polygon fill="midnightblue" stroke="midnightblue" points="68.9258,-196.615 63.3745,-187.591 62.0867,-198.108 68.9258,-196.615"/>
</g>
<!-- Node8 -->
<g id="node8" class="node"><title>Node8</title>
<g id="a_node8"><a xlink:href="$dict_8h.html" xlink:title="Dictionary. ">
<polygon fill="white" stroke="black" points="90,-224.5 90,-243.5 131,-243.5 131,-224.5 90,-224.5"/>
<text text-anchor="middle" x="110.5" y="-231.5" font-family="Helvetica,sans-Serif" font-size="10.00">dict.h</text>
</a>
</g>
</g>
<!-- Node2&#45;&gt;Node8 -->
<g id="edge7" class="edge"><title>Node2&#45;&gt;Node8</title>
<path fill="none" stroke="midnightblue" d="M89.6282,-280.083C93.0139,-272.77 97.916,-262.181 102.119,-253.103"/>
<polygon fill="midnightblue" stroke="midnightblue" points="105.423,-254.296 106.449,-243.751 99.0711,-251.355 105.423,-254.296"/>
</g>
<!-- Node4 -->
<g id="node4" class="node"><title>Node4</title>
<g id="a_node4"><a xlink:href="$common_8h.html" xlink:title="Common. ">
<polygon fill="white" stroke="black" points="62.5,-56.5 62.5,-75.5 124.5,-75.5 124.5,-56.5 62.5,-56.5"/>
<text text-anchor="middle" x="93.5" y="-63.5" font-family="Helvetica,sans-Serif" font-size="10.00">common.h</text>
</a>
</g>
</g>
<!-- Node3&#45;&gt;Node4 -->
<g id="edge3" class="edge"><title>Node3&#45;&gt;Node4</title>
<path fill="none" stroke="midnightblue" d="M64.011,-168.368C69.1984,-150.537 81.1959,-109.295 88.1846,-85.2717"/>
<polygon fill="midnightblue" stroke="midnightblue" points="91.568,-86.1711 91.0007,-75.5914 84.8466,-84.2157 91.568,-86.1711"/>
</g>
<!-- Node5 -->
<g id="node5" class="node"><title>Node5</title>
<polygon fill="white" stroke="#bfbfbf" points="0,-0.5 0,-19.5 51,-19.5 51,-0.5 0,-0.5"/>
<text text-anchor="middle" x="25.5" y="-7.5" font-family="Helvetica,sans-Serif" font-size="10.00">config.h</text>
</g>
<!-- Node4&#45;&gt;Node5 -->
<g id="edge4" class="edge"><title>Node4&#45;&gt;Node5</title>
<path fill="none" stroke="midnightblue" d="M82.5746,-56.324C72.3254,-48.1849 56.7794,-35.8395 44.499,-26.0874"/>
<polygon fill="midnightblue" stroke="midnightblue" points="46.6319,-23.3119 36.6242,-19.8339 42.2787,-28.7937 46.6319,-23.3119"/>
</g>
<!-- Node6 -->
<g id="node6" class="node"><title>Node6</title>
<polygon fill="white" stroke="#bfbfbf" points="69.5,-0.5 69.5,-19.5 117.5,-19.5 117.5,-0.5 69.5,-0.5"/>
<text text-anchor="middle" x="93.5" y="-7.5" font-family="Helvetica,sans-Serif" font-size="10.00">stdlib.h</text>
</g>
<!-- Node4&#45;&gt;Node6 -->
<g id="edge5" class="edge"><title>Node4&#45;&gt;Node6</title>
<path fill="none" stroke="midnightblue" d="M93.5,-56.083C93.5,-49.0059 93.5,-38.8611 93.5,-29.9865"/>
<polygon fill="midnightblue" stroke="midnightblue" points="97.0001,-29.751 93.5,-19.7511 90.0001,-29.7511 97.0001,-29.751"/>
</g>
<!-- Node7 -->
<g id="node7" class="node"><title>Node7</title>
<polygon fill="white" stroke="#bfbfbf" points="136,-0.5 136,-19.5 185,-19.5 185,-0.5 136,-0.5"/>
<text text-anchor="middle" x="160.5" y="-7.5" font-family="Helvetica,sans-Serif" font-size="10.00">stdint.h</text>
</g>
<!-- Node4&#45;&gt;Node7 -->
<g id="edge6" class="edge"><title>Node4&#45;&gt;Node7</title>
<path fill="none" stroke="midnightblue" d="M104.265,-56.324C114.266,-48.2631 129.387,-36.0765 141.43,-26.3695"/>
<polygon fill="midnightblue" stroke="midnightblue" points="143.95,-28.8343 149.539,-19.8339 139.557,-23.3841 143.95,-28.8343"/>
</g>
<!-- Node9 -->
<g id="node9" class="node"><title>Node9</title>
<g id="a_node9"><a xlink:href="$dict__labels_8h.html" xlink:title="Labels dictionary. ">
<polygon fill="white" stroke="black" points="90,-112.5 90,-131.5 161,-131.5 161,-112.5 90,-112.5"/>
<text text-anchor="middle" x="125.5" y="-119.5" font-family="Helvetica,sans-Serif" font-size="10.00">dict_labels.h</text>
</a>
</g>
</g>
<!-- Node8&#45;&gt;Node9 -->
<g id="edge8" class="edge"><title>Node8&#45;&gt;Node9</title>
<path fill="none" stroke="midnightblue" d="M111.677,-224.368C114.098,-206.617 119.682,-165.666 122.964,-141.597"/>
<polygon fill="midnightblue" stroke="midnightblue" points="126.445,-141.973 124.328,-131.591 119.509,-141.027 126.445,-141.973"/>
</g>
<!-- Node10 -->
<g id="node10" class="node"><title>Node10</title>
<g id="a_node10"><a xlink:href="$registers_8h.html" xlink:title="Registers. ">
<polygon fill="white" stroke="black" points="137.5,-168.5 137.5,-187.5 199.5,-187.5 199.5,-168.5 137.5,-168.5"/>
<text text-anchor="middle" x="168.5" y="-175.5" font-family="Helvetica,sans-Serif" font-size="10.00">registers.h</text>
</a>
</g>
</g>
<!-- Node8&#45;&gt;Node10 -->
<g id="edge10" class="edge"><title>Node8&#45;&gt;Node10</title>
<path fill="none" stroke="midnightblue" d="M119.819,-224.324C128.393,-216.341 141.312,-204.313 151.688,-194.653"/>
<polygon fill="midnightblue" stroke="midnightblue" points="154.078,-197.21 159.012,-187.834 149.308,-192.086 154.078,-197.21"/>
</g>
<!-- Node9&#45;&gt;Node4 -->
<g id="edge9" class="edge"><title>Node9&#45;&gt;Node4</title>
<path fill="none" stroke="midnightblue" d="M120.216,-112.083C115.789,-104.613 109.337,-93.7244 103.882,-84.5199"/>
<polygon fill="midnightblue" stroke="midnightblue" points="106.795,-82.5697 98.6858,-75.7511 100.773,-86.1383 106.795,-82.5697"/>
</g>
<!-- Node10&#45;&gt;Node9 -->
<g id="edge11" class="edge"><title>Node10&#45;&gt;Node9</title>
<path fill="none" stroke="midnightblue" d="M161.399,-168.083C155.263,-160.377 146.23,-149.033 138.761,-139.653"/>
<polygon fill="midnightblue" stroke="midnightblue" points="141.436,-137.394 132.468,-131.751 135.96,-141.754 141.436,-137.394"/>
</g>
</g>
</svg>
