<?xml version="1.0" encoding="UTF-8" standalone="no"?>
<!DOCTYPE svg PUBLIC "-//W3C//DTD SVG 1.1//EN"
 "http://www.w3.org/Graphics/SVG/1.1/DTD/svg11.dtd">
<!-- Generated by graphviz version 2.38.0 (20140413.2041)
 -->
<!-- Title: monitor.c Pages: 1 -->
<svg width="332pt" height="476pt"
 viewBox="0.00 0.00 331.50 476.00" xmlns="http://www.w3.org/2000/svg" xmlns:xlink="http://www.w3.org/1999/xlink">
<g id="graph0" class="graph" transform="scale(1 1) rotate(0) translate(4 472)">
<title>monitor.c</title>
<polygon fill="white" stroke="none" points="-4,4 -4,-472 327.5,-472 327.5,4 -4,4"/>
<!-- Node1 -->
<g id="node1" class="node"><title>Node1</title>
<polygon fill="#bfbfbf" stroke="black" points="91,-448.5 91,-467.5 148,-467.5 148,-448.5 91,-448.5"/>
<text text-anchor="middle" x="119.5" y="-455.5" font-family="Helvetica,sans-Serif" font-size="10.00">monitor.c</text>
</g>
<!-- Node2 -->
<g id="node2" class="node"><title>Node2</title>
<polygon fill="white" stroke="#bfbfbf" points="46.5,-392.5 46.5,-411.5 92.5,-411.5 92.5,-392.5 46.5,-392.5"/>
<text text-anchor="middle" x="69.5" y="-399.5" font-family="Helvetica,sans-Serif" font-size="10.00">stdio.h</text>
</g>
<!-- Node1&#45;&gt;Node2 -->
<g id="edge1" class="edge"><title>Node1&#45;&gt;Node2</title>
<path fill="none" stroke="midnightblue" d="M111.244,-448.083C104.035,-440.298 93.3902,-428.801 84.6542,-419.367"/>
<polygon fill="midnightblue" stroke="midnightblue" points="86.9651,-416.711 77.6028,-411.751 81.8288,-421.467 86.9651,-416.711"/>
</g>
<!-- Node3 -->
<g id="node3" class="node"><title>Node3</title>
<g id="a_node3"><a xlink:href="$ingenialink_8h.html" xlink:title="IngeniaLink main header. ">
<polygon fill="white" stroke="black" points="111,-392.5 111,-411.5 230,-411.5 230,-392.5 111,-392.5"/>
<text text-anchor="middle" x="170.5" y="-399.5" font-family="Helvetica,sans-Serif" font-size="10.00">ingenialink/ingenialink.h</text>
</a>
</g>
</g>
<!-- Node1&#45;&gt;Node3 -->
<g id="edge2" class="edge"><title>Node1&#45;&gt;Node3</title>
<path fill="none" stroke="midnightblue" d="M127.922,-448.083C135.348,-440.22 146.352,-428.569 155.312,-419.081"/>
<polygon fill="midnightblue" stroke="midnightblue" points="157.913,-421.424 162.235,-411.751 152.824,-416.618 157.913,-421.424"/>
</g>
<!-- Node4 -->
<g id="node4" class="node"><title>Node4</title>
<g id="a_node4"><a xlink:href="$const_8h.html" xlink:title="Constants. ">
<polygon fill="white" stroke="black" points="0,-336.5 0,-355.5 49,-355.5 49,-336.5 0,-336.5"/>
<text text-anchor="middle" x="24.5" y="-343.5" font-family="Helvetica,sans-Serif" font-size="10.00">const.h</text>
</a>
</g>
</g>
<!-- Node3&#45;&gt;Node4 -->
<g id="edge3" class="edge"><title>Node3&#45;&gt;Node4</title>
<path fill="none" stroke="midnightblue" d="M147.366,-392.444C123.018,-383.438 84.4929,-369.189 57.077,-359.049"/>
<polygon fill="midnightblue" stroke="midnightblue" points="58.1191,-355.703 47.5259,-355.516 55.6908,-362.268 58.1191,-355.703"/>
</g>
<!-- Node5 -->
<g id="node5" class="node"><title>Node5</title>
<g id="a_node5"><a xlink:href="$dict_8h.html" xlink:title="Dictionary. ">
<polygon fill="white" stroke="black" points="89,-224.5 89,-243.5 130,-243.5 130,-224.5 89,-224.5"/>
<text text-anchor="middle" x="109.5" y="-231.5" font-family="Helvetica,sans-Serif" font-size="10.00">dict.h</text>
</a>
</g>
</g>
<!-- Node3&#45;&gt;Node5 -->
<g id="edge4" class="edge"><title>Node3&#45;&gt;Node5</title>
<path fill="none" stroke="midnightblue" d="M143.571,-392.356C126.781,-385.411 106.522,-373.825 96.5,-356 78.1069,-323.288 91.4964,-277.718 101.419,-252.881"/>
<polygon fill="midnightblue" stroke="midnightblue" points="104.671,-254.177 105.356,-243.604 98.2273,-251.442 104.671,-254.177"/>
</g>
<!-- Node12 -->
<g id="node12" class="node"><title>Node12</title>
<g id="a_node12"><a xlink:href="$err_8h.html" xlink:title="Error reporting. ">
<polygon fill="white" stroke="black" points="230.5,-280.5 230.5,-299.5 266.5,-299.5 266.5,-280.5 230.5,-280.5"/>
<text text-anchor="middle" x="248.5" y="-287.5" font-family="Helvetica,sans-Serif" font-size="10.00">err.h</text>
</a>
</g>
</g>
<!-- Node3&#45;&gt;Node12 -->
<g id="edge12" class="edge"><title>Node3&#45;&gt;Node12</title>
<path fill="none" stroke="midnightblue" d="M192.171,-392.403C207.647,-385.093 227.586,-373.05 238.5,-356 247.253,-342.327 249.367,-323.791 249.518,-310.011"/>
<polygon fill="midnightblue" stroke="midnightblue" points="253.011,-309.684 249.285,-299.767 246.013,-309.844 253.011,-309.684"/>
</g>
<!-- Node13 -->
<g id="node13" class="node"><title>Node13</title>
<g id="a_node13"><a xlink:href="$monitor_8h.html" xlink:title="Monitor. ">
<polygon fill="white" stroke="black" points="106,-336.5 106,-355.5 163,-355.5 163,-336.5 106,-336.5"/>
<text text-anchor="middle" x="134.5" y="-343.5" font-family="Helvetica,sans-Serif" font-size="10.00">monitor.h</text>
</a>
</g>
</g>
<!-- Node3&#45;&gt;Node13 -->
<g id="edge14" class="edge"><title>Node3&#45;&gt;Node13</title>
<path fill="none" stroke="midnightblue" d="M164.555,-392.083C159.523,-384.534 152.163,-373.495 145.987,-364.23"/>
<polygon fill="midnightblue" stroke="midnightblue" points="148.793,-362.13 140.334,-355.751 142.969,-366.013 148.793,-362.13"/>
</g>
<!-- Node16 -->
<g id="node16" class="node"><title>Node16</title>
<g id="a_node16"><a xlink:href="$poller_8h.html" xlink:title="Poller. ">
<polygon fill="white" stroke="black" points="181.5,-336.5 181.5,-355.5 229.5,-355.5 229.5,-336.5 181.5,-336.5"/>
<text text-anchor="middle" x="205.5" y="-343.5" font-family="Helvetica,sans-Serif" font-size="10.00">poller.h</text>
</a>
</g>
</g>
<!-- Node3&#45;&gt;Node16 -->
<g id="edge19" class="edge"><title>Node3&#45;&gt;Node16</title>
<path fill="none" stroke="midnightblue" d="M176.28,-392.083C181.172,-384.534 188.327,-373.495 194.333,-364.23"/>
<polygon fill="midnightblue" stroke="midnightblue" points="197.326,-366.046 199.828,-355.751 191.452,-362.239 197.326,-366.046"/>
</g>
<!-- Node17 -->
<g id="node17" class="node"><title>Node17</title>
<g id="a_node17"><a xlink:href="$version_8h.html" xlink:title="Version information. ">
<polygon fill="white" stroke="black" points="267.5,-224.5 267.5,-243.5 323.5,-243.5 323.5,-224.5 267.5,-224.5"/>
<text text-anchor="middle" x="295.5" y="-231.5" font-family="Helvetica,sans-Serif" font-size="10.00">version.h</text>
</a>
</g>
</g>
<!-- Node3&#45;&gt;Node17 -->
<g id="edge21" class="edge"><title>Node3&#45;&gt;Node17</title>
<path fill="none" stroke="midnightblue" d="M198.833,-392.392C217.57,-385.363 241.379,-373.667 256.5,-356 282.003,-326.203 290.892,-279.47 293.944,-253.67"/>
<polygon fill="midnightblue" stroke="midnightblue" points="297.427,-254.016 294.95,-243.715 290.462,-253.312 297.427,-254.016"/>
</g>
<!-- Node6 -->
<g id="node6" class="node"><title>Node6</title>
<g id="a_node6"><a xlink:href="$dict__labels_8h.html" xlink:title="Labels dictionary. ">
<polygon fill="white" stroke="black" points="102,-112.5 102,-131.5 173,-131.5 173,-112.5 102,-112.5"/>
<text text-anchor="middle" x="137.5" y="-119.5" font-family="Helvetica,sans-Serif" font-size="10.00">dict_labels.h</text>
</a>
</g>
</g>
<!-- Node5&#45;&gt;Node6 -->
<g id="edge5" class="edge"><title>Node5&#45;&gt;Node6</title>
<path fill="none" stroke="midnightblue" d="M111.697,-224.368C116.216,-206.617 126.639,-165.666 132.766,-141.597"/>
<polygon fill="midnightblue" stroke="midnightblue" points="136.238,-142.146 135.313,-131.591 129.454,-140.419 136.238,-142.146"/>
</g>
<!-- Node11 -->
<g id="node11" class="node"><title>Node11</title>
<g id="a_node11"><a xlink:href="$registers_8h.html" xlink:title="Registers. ">
<polygon fill="white" stroke="black" points="49.5,-168.5 49.5,-187.5 111.5,-187.5 111.5,-168.5 49.5,-168.5"/>
<text text-anchor="middle" x="80.5" y="-175.5" font-family="Helvetica,sans-Serif" font-size="10.00">registers.h</text>
</a>
</g>
</g>
<!-- Node5&#45;&gt;Node11 -->
<g id="edge10" class="edge"><title>Node5&#45;&gt;Node11</title>
<path fill="none" stroke="midnightblue" d="M104.711,-224.083C100.742,-216.691 94.9749,-205.953 90.0652,-196.811"/>
<polygon fill="midnightblue" stroke="midnightblue" points="93.0145,-194.905 85.1997,-187.751 86.8475,-198.217 93.0145,-194.905"/>
</g>
<!-- Node7 -->
<g id="node7" class="node"><title>Node7</title>
<g id="a_node7"><a xlink:href="$common_8h.html" xlink:title="Common. ">
<polygon fill="white" stroke="black" points="189.5,-56.5 189.5,-75.5 251.5,-75.5 251.5,-56.5 189.5,-56.5"/>
<text text-anchor="middle" x="220.5" y="-63.5" font-family="Helvetica,sans-Serif" font-size="10.00">common.h</text>
</a>
</g>
</g>
<!-- Node6&#45;&gt;Node7 -->
<g id="edge6" class="edge"><title>Node6&#45;&gt;Node7</title>
<path fill="none" stroke="midnightblue" d="M150.835,-112.324C163.662,-103.979 183.285,-91.2122 198.44,-81.3524"/>
<polygon fill="midnightblue" stroke="midnightblue" points="200.724,-84.0417 207.198,-75.6545 196.907,-78.1742 200.724,-84.0417"/>
</g>
<!-- Node8 -->
<g id="node8" class="node"><title>Node8</title>
<polygon fill="white" stroke="#bfbfbf" points="127,-0.5 127,-19.5 178,-19.5 178,-0.5 127,-0.5"/>
<text text-anchor="middle" x="152.5" y="-7.5" font-family="Helvetica,sans-Serif" font-size="10.00">config.h</text>
</g>
<!-- Node7&#45;&gt;Node8 -->
<g id="edge7" class="edge"><title>Node7&#45;&gt;Node8</title>
<path fill="none" stroke="midnightblue" d="M209.575,-56.324C199.325,-48.1849 183.779,-35.8395 171.499,-26.0874"/>
<polygon fill="midnightblue" stroke="midnightblue" points="173.632,-23.3119 163.624,-19.8339 169.279,-28.7937 173.632,-23.3119"/>
</g>
<!-- Node9 -->
<g id="node9" class="node"><title>Node9</title>
<polygon fill="white" stroke="#bfbfbf" points="196.5,-0.5 196.5,-19.5 244.5,-19.5 244.5,-0.5 196.5,-0.5"/>
<text text-anchor="middle" x="220.5" y="-7.5" font-family="Helvetica,sans-Serif" font-size="10.00">stdlib.h</text>
</g>
<!-- Node7&#45;&gt;Node9 -->
<g id="edge8" class="edge"><title>Node7&#45;&gt;Node9</title>
<path fill="none" stroke="midnightblue" d="M220.5,-56.083C220.5,-49.0059 220.5,-38.8611 220.5,-29.9865"/>
<polygon fill="midnightblue" stroke="midnightblue" points="224,-29.751 220.5,-19.7511 217,-29.7511 224,-29.751"/>
</g>
<!-- Node10 -->
<g id="node10" class="node"><title>Node10</title>
<polygon fill="white" stroke="#bfbfbf" points="263,-0.5 263,-19.5 312,-19.5 312,-0.5 263,-0.5"/>
<text text-anchor="middle" x="287.5" y="-7.5" font-family="Helvetica,sans-Serif" font-size="10.00">stdint.h</text>
</g>
<!-- Node7&#45;&gt;Node10 -->
<g id="edge9" class="edge"><title>Node7&#45;&gt;Node10</title>
<path fill="none" stroke="midnightblue" d="M231.265,-56.324C241.266,-48.2631 256.387,-36.0765 268.43,-26.3695"/>
<polygon fill="midnightblue" stroke="midnightblue" points="270.95,-28.8343 276.539,-19.8339 266.557,-23.3841 270.95,-28.8343"/>
</g>
<!-- Node11&#45;&gt;Node6 -->
<g id="edge11" class="edge"><title>Node11&#45;&gt;Node6</title>
<path fill="none" stroke="midnightblue" d="M89.658,-168.324C98.0015,-160.42 110.532,-148.548 120.677,-138.938"/>
<polygon fill="midnightblue" stroke="midnightblue" points="123.323,-141.252 128.175,-131.834 118.509,-136.171 123.323,-141.252"/>
</g>
<!-- Node12&#45;&gt;Node7 -->
<g id="edge13" class="edge"><title>Node12&#45;&gt;Node7</title>
<path fill="none" stroke="midnightblue" d="M247.402,-280.297C243.282,-247.633 228.681,-131.866 222.891,-85.9573"/>
<polygon fill="midnightblue" stroke="midnightblue" points="226.344,-85.3671 221.62,-75.8837 219.399,-86.2431 226.344,-85.3671"/>
</g>
<!-- Node14 -->
<g id="node14" class="node"><title>Node14</title>
<g id="a_node14"><a xlink:href="$servo_8h.html" xlink:title="Servo. ">
<polygon fill="white" stroke="black" points="161,-280.5 161,-299.5 210,-299.5 210,-280.5 161,-280.5"/>
<text text-anchor="middle" x="185.5" y="-287.5" font-family="Helvetica,sans-Serif" font-size="10.00">servo.h</text>
</a>
</g>
</g>
<!-- Node13&#45;&gt;Node14 -->
<g id="edge15" class="edge"><title>Node13&#45;&gt;Node14</title>
<path fill="none" stroke="midnightblue" d="M142.922,-336.083C150.348,-328.22 161.352,-316.569 170.312,-307.081"/>
<polygon fill="midnightblue" stroke="midnightblue" points="172.913,-309.424 177.235,-299.751 167.824,-304.618 172.913,-309.424"/>
</g>
<!-- Node14&#45;&gt;Node5 -->
<g id="edge18" class="edge"><title>Node14&#45;&gt;Node5</title>
<path fill="none" stroke="midnightblue" d="M173.289,-280.324C161.724,-272.107 144.125,-259.602 130.339,-249.807"/>
<polygon fill="midnightblue" stroke="midnightblue" points="132.112,-246.773 121.933,-243.834 128.057,-252.479 132.112,-246.773"/>
</g>
<!-- Node15 -->
<g id="node15" class="node"><title>Node15</title>
<g id="a_node15"><a xlink:href="$net_8h.html" xlink:title="Network. ">
<polygon fill="white" stroke="black" points="169.5,-168.5 169.5,-187.5 207.5,-187.5 207.5,-168.5 169.5,-168.5"/>
<text text-anchor="middle" x="188.5" y="-175.5" font-family="Helvetica,sans-Serif" font-size="10.00">net.h</text>
</a>
</g>
</g>
<!-- Node14&#45;&gt;Node15 -->
<g id="edge16" class="edge"><title>Node14&#45;&gt;Node15</title>
<path fill="none" stroke="midnightblue" d="M185.735,-280.368C186.22,-262.617 187.336,-221.666 187.993,-197.597"/>
<polygon fill="midnightblue" stroke="midnightblue" points="191.492,-197.683 188.266,-187.591 184.494,-197.492 191.492,-197.683"/>
</g>
<!-- Node15&#45;&gt;Node7 -->
<g id="edge17" class="edge"><title>Node15&#45;&gt;Node7</title>
<path fill="none" stroke="midnightblue" d="M191.011,-168.368C196.198,-150.537 208.196,-109.295 215.185,-85.2717"/>
<polygon fill="midnightblue" stroke="midnightblue" points="218.568,-86.1711 218.001,-75.5914 211.847,-84.2157 218.568,-86.1711"/>
</g>
<!-- Node16&#45;&gt;Node14 -->
<g id="edge20" class="edge"><title>Node16&#45;&gt;Node14</title>
<path fill="none" stroke="midnightblue" d="M202.197,-336.083C199.518,-328.849 195.651,-318.409 192.314,-309.397"/>
<polygon fill="midnightblue" stroke="midnightblue" points="195.496,-307.913 188.741,-299.751 188.932,-310.344 195.496,-307.913"/>
</g>
<!-- Node17&#45;&gt;Node7 -->
<g id="edge22" class="edge"><title>Node17&#45;&gt;Node7</title>
<path fill="none" stroke="midnightblue" d="M293.469,-224.428C288.458,-204.115 274.378,-151.771 253.5,-112 248.275,-102.047 241.007,-91.8718 234.622,-83.7206"/>
<polygon fill="midnightblue" stroke="midnightblue" points="237.195,-81.3376 228.177,-75.7763 231.759,-85.7474 237.195,-81.3376"/>
</g>
</g>
</svg>
