<?xml version="1.0" encoding="UTF-8" standalone="no"?>
<!DOCTYPE svg PUBLIC "-//W3C//DTD SVG 1.1//EN"
 "http://www.w3.org/Graphics/SVG/1.1/DTD/svg11.dtd">
<!-- Generated by graphviz version 2.38.0 (20140413.2041)
 -->
<!-- Title: ingenialink/registers.h Pages: 1 -->
<svg width="193pt" height="196pt"
 viewBox="0.00 0.00 193.00 196.00" xmlns="http://www.w3.org/2000/svg" xmlns:xlink="http://www.w3.org/1999/xlink">
<g id="graph0" class="graph" transform="scale(1 1) rotate(0) translate(4 192)">
<title>ingenialink/registers.h</title>
<polygon fill="white" stroke="none" points="-4,4 -4,-192 189,-192 189,4 -4,4"/>
<!-- Node1 -->
<g id="node1" class="node"><title>Node1</title>
<polygon fill="#bfbfbf" stroke="black" points="38,-168.5 38,-187.5 149,-187.5 149,-168.5 38,-168.5"/>
<text text-anchor="middle" x="93.5" y="-175.5" font-family="Helvetica,sans-Serif" font-size="10.00">ingenialink/registers.h</text>
</g>
<!-- Node2 -->
<g id="node2" class="node"><title>Node2</title>
<g id="a_node2"><a xlink:href="$dict__labels_8h.html" xlink:title="Labels dictionary. ">
<polygon fill="white" stroke="black" points="58,-112.5 58,-131.5 129,-131.5 129,-112.5 58,-112.5"/>
<text text-anchor="middle" x="93.5" y="-119.5" font-family="Helvetica,sans-Serif" font-size="10.00">dict_labels.h</text>
</a>
</g>
</g>
<!-- Node1&#45;&gt;Node2 -->
<g id="edge1" class="edge"><title>Node1&#45;&gt;Node2</title>
<path fill="none" stroke="midnightblue" d="M93.5,-168.083C93.5,-161.006 93.5,-150.861 93.5,-141.986"/>
<polygon fill="midnightblue" stroke="midnightblue" points="97.0001,-141.751 93.5,-131.751 90.0001,-141.751 97.0001,-141.751"/>
</g>
<!-- Node3 -->
<g id="node3" class="node"><title>Node3</title>
<g id="a_node3"><a xlink:href="$common_8h.html" xlink:title="Common. ">
<polygon fill="white" stroke="black" points="62.5,-56.5 62.5,-75.5 124.5,-75.5 124.5,-56.5 62.5,-56.5"/>
<text text-anchor="middle" x="93.5" y="-63.5" font-family="Helvetica,sans-Serif" font-size="10.00">common.h</text>
</a>
</g>
</g>
<!-- Node2&#45;&gt;Node3 -->
<g id="edge2" class="edge"><title>Node2&#45;&gt;Node3</title>
<path fill="none" stroke="midnightblue" d="M93.5,-112.083C93.5,-105.006 93.5,-94.8611 93.5,-85.9865"/>
<polygon fill="midnightblue" stroke="midnightblue" points="97.0001,-85.751 93.5,-75.7511 90.0001,-85.7511 97.0001,-85.751"/>
</g>
<!-- Node4 -->
<g id="node4" class="node"><title>Node4</title>
<polygon fill="white" stroke="#bfbfbf" points="0,-0.5 0,-19.5 51,-19.5 51,-0.5 0,-0.5"/>
<text text-anchor="middle" x="25.5" y="-7.5" font-family="Helvetica,sans-Serif" font-size="10.00">config.h</text>
</g>
<!-- Node3&#45;&gt;Node4 -->
<g id="edge3" class="edge"><title>Node3&#45;&gt;Node4</title>
<path fill="none" stroke="midnightblue" d="M82.5746,-56.324C72.3254,-48.1849 56.7794,-35.8395 44.499,-26.0874"/>
<polygon fill="midnightblue" stroke="midnightblue" points="46.6319,-23.3119 36.6242,-19.8339 42.2787,-28.7937 46.6319,-23.3119"/>
</g>
<!-- Node5 -->
<g id="node5" class="node"><title>Node5</title>
<polygon fill="white" stroke="#bfbfbf" points="69.5,-0.5 69.5,-19.5 117.5,-19.5 117.5,-0.5 69.5,-0.5"/>
<text text-anchor="middle" x="93.5" y="-7.5" font-family="Helvetica,sans-Serif" font-size="10.00">stdlib.h</text>
</g>
<!-- Node3&#45;&gt;Node5 -->
<g id="edge4" class="edge"><title>Node3&#45;&gt;Node5</title>
<path fill="none" stroke="midnightblue" d="M93.5,-56.083C93.5,-49.0059 93.5,-38.8611 93.5,-29.9865"/>
<polygon fill="midnightblue" stroke="midnightblue" points="97.0001,-29.751 93.5,-19.7511 90.0001,-29.7511 97.0001,-29.751"/>
</g>
<!-- Node6 -->
<g id="node6" class="node"><title>Node6</title>
<polygon fill="white" stroke="#bfbfbf" points="136,-0.5 136,-19.5 185,-19.5 185,-0.5 136,-0.5"/>
<text text-anchor="middle" x="160.5" y="-7.5" font-family="Helvetica,sans-Serif" font-size="10.00">stdint.h</text>
</g>
<!-- Node3&#45;&gt;Node6 -->
<g id="edge5" class="edge"><title>Node3&#45;&gt;Node6</title>
<path fill="none" stroke="midnightblue" d="M104.265,-56.324C114.266,-48.2631 129.387,-36.0765 141.43,-26.3695"/>
<polygon fill="midnightblue" stroke="midnightblue" points="143.95,-28.8343 149.539,-19.8339 139.557,-23.3841 143.95,-28.8343"/>
</g>
</g>
</svg>
