<?xml version="1.0" encoding="UTF-8" standalone="no"?>
<!DOCTYPE svg PUBLIC "-//W3C//DTD SVG 1.1//EN"
 "http://www.w3.org/Graphics/SVG/1.1/DTD/svg11.dtd">
<!-- Generated by graphviz version 2.38.0 (20140413.2041)
 -->
<!-- Title: ingenialink/registers.h Pages: 1 -->
<svg width="272pt" height="308pt"
 viewBox="0.00 0.00 272.00 308.00" xmlns="http://www.w3.org/2000/svg" xmlns:xlink="http://www.w3.org/1999/xlink">
<g id="graph0" class="graph" transform="scale(1 1) rotate(0) translate(4 304)">
<title>ingenialink/registers.h</title>
<polygon fill="white" stroke="none" points="-4,4 -4,-304 268,-304 268,4 -4,4"/>
<!-- Node1 -->
<g id="node1" class="node"><title>Node1</title>
<polygon fill="#bfbfbf" stroke="black" points="0,-280.5 0,-299.5 111,-299.5 111,-280.5 0,-280.5"/>
<text text-anchor="middle" x="55.5" y="-287.5" font-family="Helvetica,sans-Serif" font-size="10.00">ingenialink/registers.h</text>
</g>
<!-- Node2 -->
<g id="node2" class="node"><title>Node2</title>
<g id="a_node2"><a xlink:href="$dict_8h.html" xlink:title="Dictionary. ">
<polygon fill="white" stroke="black" points="11,-224.5 11,-243.5 100,-243.5 100,-224.5 11,-224.5"/>
<text text-anchor="middle" x="55.5" y="-231.5" font-family="Helvetica,sans-Serif" font-size="10.00">ingenialink/dict.h</text>
</a>
</g>
</g>
<!-- Node1&#45;&gt;Node2 -->
<g id="edge1" class="edge"><title>Node1&#45;&gt;Node2</title>
<path fill="none" stroke="midnightblue" d="M55.5,-269.805C55.5,-260.91 55.5,-250.78 55.5,-243.751"/>
<polygon fill="midnightblue" stroke="midnightblue" points="52.0001,-270.083 55.5,-280.083 59.0001,-270.083 52.0001,-270.083"/>
</g>
<!-- Node3 -->
<g id="node3" class="node"><title>Node3</title>
<g id="a_node3"><a xlink:href="$ingenialink_8h.html" xlink:title="IngeniaLink main header. ">
<polygon fill="white" stroke="black" points="37,-56.5 37,-75.5 156,-75.5 156,-56.5 37,-56.5"/>
<text text-anchor="middle" x="96.5" y="-63.5" font-family="Helvetica,sans-Serif" font-size="10.00">ingenialink/ingenialink.h</text>
</a>
</g>
</g>
<!-- Node2&#45;&gt;Node3 -->
<g id="edge2" class="edge"><title>Node2&#45;&gt;Node3</title>
<path fill="none" stroke="midnightblue" d="M45.7874,-215.044C33.9129,-190.466 17.3834,-145.573 34.5,-112 43.1991,-94.9372 61.7289,-82.8318 76.2774,-75.5055"/>
<polygon fill="midnightblue" stroke="midnightblue" points="42.8175,-216.924 50.4798,-224.241 49.0528,-213.743 42.8175,-216.924"/>
</g>
<!-- Node5 -->
<g id="node5" class="node"><title>Node5</title>
<g id="a_node5"><a xlink:href="$servo_8h.html" xlink:title="Servo. ">
<polygon fill="white" stroke="black" points="47.5,-168.5 47.5,-187.5 145.5,-187.5 145.5,-168.5 47.5,-168.5"/>
<text text-anchor="middle" x="96.5" y="-175.5" font-family="Helvetica,sans-Serif" font-size="10.00">ingenialink/servo.h</text>
</a>
</g>
</g>
<!-- Node2&#45;&gt;Node5 -->
<g id="edge4" class="edge"><title>Node2&#45;&gt;Node5</title>
<path fill="none" stroke="midnightblue" d="M68.5172,-215.855C75.6167,-206.505 84.104,-195.327 89.8557,-187.751"/>
<polygon fill="midnightblue" stroke="midnightblue" points="65.5299,-214.002 62.2703,-224.083 71.105,-218.235 65.5299,-214.002"/>
</g>
<!-- Node4 -->
<g id="node4" class="node"><title>Node4</title>
<g id="a_node4"><a xlink:href="$utils_8h_source.html" xlink:title="utils.h">
<polygon fill="white" stroke="black" points="75,-0.5 75,-19.5 118,-19.5 118,-0.5 75,-0.5"/>
<text text-anchor="middle" x="96.5" y="-7.5" font-family="Helvetica,sans-Serif" font-size="10.00">utils.h</text>
</a>
</g>
</g>
<!-- Node3&#45;&gt;Node4 -->
<g id="edge3" class="edge"><title>Node3&#45;&gt;Node4</title>
<path fill="none" stroke="midnightblue" d="M96.5,-45.8045C96.5,-36.9102 96.5,-26.7798 96.5,-19.7511"/>
<polygon fill="midnightblue" stroke="midnightblue" points="93.0001,-46.083 96.5,-56.083 100,-46.083 93.0001,-46.083"/>
</g>
<!-- Node6 -->
<g id="node6" class="node"><title>Node6</title>
<g id="a_node6"><a xlink:href="$monitor_8h.html" xlink:title="Monitor. ">
<polygon fill="white" stroke="black" points="43.5,-112.5 43.5,-131.5 149.5,-131.5 149.5,-112.5 43.5,-112.5"/>
<text text-anchor="middle" x="96.5" y="-119.5" font-family="Helvetica,sans-Serif" font-size="10.00">ingenialink/monitor.h</text>
</a>
</g>
</g>
<!-- Node5&#45;&gt;Node6 -->
<g id="edge5" class="edge"><title>Node5&#45;&gt;Node6</title>
<path fill="none" stroke="midnightblue" d="M96.5,-157.805C96.5,-148.91 96.5,-138.78 96.5,-131.751"/>
<polygon fill="midnightblue" stroke="midnightblue" points="93.0001,-158.083 96.5,-168.083 100,-158.083 93.0001,-158.083"/>
</g>
<!-- Node7 -->
<g id="node7" class="node"><title>Node7</title>
<g id="a_node7"><a xlink:href="$poller_8h.html" xlink:title="Poller. ">
<polygon fill="white" stroke="black" points="167,-112.5 167,-131.5 264,-131.5 264,-112.5 167,-112.5"/>
<text text-anchor="middle" x="215.5" y="-119.5" font-family="Helvetica,sans-Serif" font-size="10.00">ingenialink/poller.h</text>
</a>
</g>
</g>
<!-- Node5&#45;&gt;Node7 -->
<g id="edge7" class="edge"><title>Node5&#45;&gt;Node7</title>
<path fill="none" stroke="midnightblue" d="M124.637,-164.232C146.896,-154.131 177.356,-140.309 196.732,-131.516"/>
<polygon fill="midnightblue" stroke="midnightblue" points="123.016,-161.124 115.356,-168.444 125.909,-167.498 123.016,-161.124"/>
</g>
<!-- Node6&#45;&gt;Node3 -->
<g id="edge6" class="edge"><title>Node6&#45;&gt;Node3</title>
<path fill="none" stroke="midnightblue" d="M96.5,-101.805C96.5,-92.9102 96.5,-82.7798 96.5,-75.7511"/>
<polygon fill="midnightblue" stroke="midnightblue" points="93.0001,-102.083 96.5,-112.083 100,-102.083 93.0001,-102.083"/>
</g>
<!-- Node7&#45;&gt;Node3 -->
<g id="edge8" class="edge"><title>Node7&#45;&gt;Node3</title>
<path fill="none" stroke="midnightblue" d="M187.363,-108.232C165.104,-98.1312 134.644,-84.3091 115.268,-75.5164"/>
<polygon fill="midnightblue" stroke="midnightblue" points="186.091,-111.498 196.644,-112.444 188.984,-105.124 186.091,-111.498"/>
</g>
</g>
</svg>
