<?xml version="1.0" encoding="UTF-8" standalone="no"?>
<!DOCTYPE svg PUBLIC "-//W3C//DTD SVG 1.1//EN"
 "http://www.w3.org/Graphics/SVG/1.1/DTD/svg11.dtd">
<!-- Generated by graphviz version 2.38.0 (20140413.2041)
 -->
<!-- Title: ingenialink/servo.h Pages: 1 -->
<svg width="229pt" height="196pt"
 viewBox="0.00 0.00 228.50 196.00" xmlns="http://www.w3.org/2000/svg" xmlns:xlink="http://www.w3.org/1999/xlink">
<g id="graph0" class="graph" transform="scale(1 1) rotate(0) translate(4 192)">
<title>ingenialink/servo.h</title>
<polygon fill="white" stroke="none" points="-4,4 -4,-192 224.5,-192 224.5,4 -4,4"/>
<!-- Node1 -->
<g id="node1" class="node"><title>Node1</title>
<polygon fill="#bfbfbf" stroke="black" points="63,-168.5 63,-187.5 161,-187.5 161,-168.5 63,-168.5"/>
<text text-anchor="middle" x="112" y="-175.5" font-family="Helvetica,sans-Serif" font-size="10.00">ingenialink/servo.h</text>
</g>
<!-- Node2 -->
<g id="node2" class="node"><title>Node2</title>
<g id="a_node2"><a xlink:href="$monitor_8h.html" xlink:title="Monitor. ">
<polygon fill="white" stroke="black" points="0,-112.5 0,-131.5 106,-131.5 106,-112.5 0,-112.5"/>
<text text-anchor="middle" x="53" y="-119.5" font-family="Helvetica,sans-Serif" font-size="10.00">ingenialink/monitor.h</text>
</a>
</g>
</g>
<!-- Node1&#45;&gt;Node2 -->
<g id="edge1" class="edge"><title>Node1&#45;&gt;Node2</title>
<path fill="none" stroke="midnightblue" d="M95.1055,-161.537C84.5855,-151.909 71.4313,-139.869 62.6519,-131.834"/>
<polygon fill="midnightblue" stroke="midnightblue" points="92.7808,-164.154 102.521,-168.324 97.5069,-158.99 92.7808,-164.154"/>
</g>
<!-- Node5 -->
<g id="node5" class="node"><title>Node5</title>
<g id="a_node5"><a xlink:href="$poller_8h.html" xlink:title="Poller. ">
<polygon fill="white" stroke="black" points="123.5,-112.5 123.5,-131.5 220.5,-131.5 220.5,-112.5 123.5,-112.5"/>
<text text-anchor="middle" x="172" y="-119.5" font-family="Helvetica,sans-Serif" font-size="10.00">ingenialink/poller.h</text>
</a>
</g>
</g>
<!-- Node1&#45;&gt;Node5 -->
<g id="edge4" class="edge"><title>Node1&#45;&gt;Node5</title>
<path fill="none" stroke="midnightblue" d="M129.181,-161.537C139.879,-151.909 153.256,-139.869 162.185,-131.834"/>
<polygon fill="midnightblue" stroke="midnightblue" points="126.732,-159.033 121.64,-168.324 131.414,-164.236 126.732,-159.033"/>
</g>
<!-- Node3 -->
<g id="node3" class="node"><title>Node3</title>
<g id="a_node3"><a xlink:href="$ingenialink_8h.html" xlink:title="IngeniaLink main header. ">
<polygon fill="white" stroke="black" points="52.5,-56.5 52.5,-75.5 171.5,-75.5 171.5,-56.5 52.5,-56.5"/>
<text text-anchor="middle" x="112" y="-63.5" font-family="Helvetica,sans-Serif" font-size="10.00">ingenialink/ingenialink.h</text>
</a>
</g>
</g>
<!-- Node2&#45;&gt;Node3 -->
<g id="edge2" class="edge"><title>Node2&#45;&gt;Node3</title>
<path fill="none" stroke="midnightblue" d="M69.8945,-105.537C80.4145,-95.9087 93.5687,-83.8694 102.348,-75.8339"/>
<polygon fill="midnightblue" stroke="midnightblue" points="67.4931,-102.99 62.4794,-112.324 72.2192,-108.154 67.4931,-102.99"/>
</g>
<!-- Node4 -->
<g id="node4" class="node"><title>Node4</title>
<g id="a_node4"><a xlink:href="$utils_8h_source.html" xlink:title="utils.h">
<polygon fill="white" stroke="black" points="90.5,-0.5 90.5,-19.5 133.5,-19.5 133.5,-0.5 90.5,-0.5"/>
<text text-anchor="middle" x="112" y="-7.5" font-family="Helvetica,sans-Serif" font-size="10.00">utils.h</text>
</a>
</g>
</g>
<!-- Node3&#45;&gt;Node4 -->
<g id="edge3" class="edge"><title>Node3&#45;&gt;Node4</title>
<path fill="none" stroke="midnightblue" d="M112,-45.8045C112,-36.9102 112,-26.7798 112,-19.7511"/>
<polygon fill="midnightblue" stroke="midnightblue" points="108.5,-46.083 112,-56.083 115.5,-46.083 108.5,-46.083"/>
</g>
<!-- Node5&#45;&gt;Node3 -->
<g id="edge5" class="edge"><title>Node5&#45;&gt;Node3</title>
<path fill="none" stroke="midnightblue" d="M154.819,-105.537C144.121,-95.9087 130.744,-83.8694 121.815,-75.8339"/>
<polygon fill="midnightblue" stroke="midnightblue" points="152.586,-108.236 162.36,-112.324 157.268,-103.033 152.586,-108.236"/>
</g>
</g>
</svg>
