<?xml version="1.0" encoding="UTF-8" standalone="no"?>
<!DOCTYPE svg PUBLIC "-//W3C//DTD SVG 1.1//EN"
 "http://www.w3.org/Graphics/SVG/1.1/DTD/svg11.dtd">
<!-- Generated by graphviz version 2.38.0 (20140413.2041)
 -->
<!-- Title: il_reg_t Pages: 1 -->
<svg width="85pt" height="173pt"
 viewBox="0.00 0.00 85.00 173.00" xmlns="http://www.w3.org/2000/svg" xmlns:xlink="http://www.w3.org/1999/xlink">
<g id="graph0" class="graph" transform="scale(1 1) rotate(0) translate(4 169)">
<title>il_reg_t</title>
<polygon fill="white" stroke="none" points="-4,4 -4,-169 81,-169 81,4 -4,4"/>
<!-- Node1 -->
<g id="node1" class="node"><title>Node1</title>
<polygon fill="#bfbfbf" stroke="black" points="14.5,-0.5 14.5,-19.5 62.5,-19.5 62.5,-0.5 14.5,-0.5"/>
<text text-anchor="middle" x="38.5" y="-7.5" font-family="Helvetica,sans-Serif" font-size="10.00">il_reg_t</text>
</g>
<!-- Node2 -->
<g id="node2" class="node"><title>Node2</title>
<g id="a_node2"><a xlink:href="$structil__reg__range__t.html" xlink:title="Range. ">
<polygon fill="white" stroke="black" points="0,-67.5 0,-86.5 77,-86.5 77,-67.5 0,-67.5"/>
<text text-anchor="middle" x="38.5" y="-74.5" font-family="Helvetica,sans-Serif" font-size="10.00">il_reg_range_t</text>
</a>
</g>
</g>
<!-- Node2&#45;&gt;Node1 -->
<g id="edge1" class="edge"><title>Node2&#45;&gt;Node1</title>
<path fill="none" stroke="#9a32cd" stroke-dasharray="5,2" d="M38.5,-57.037C38.5,-44.6703 38.5,-29.1198 38.5,-19.6273"/>
<polygon fill="#9a32cd" stroke="#9a32cd" points="35.0001,-57.2338 38.5,-67.2338 42.0001,-57.2338 35.0001,-57.2338"/>
<text text-anchor="middle" x="52.5" y="-41" font-family="Helvetica,sans-Serif" font-size="10.00"> range</text>
</g>
<!-- Node3 -->
<g id="node3" class="node"><title>Node3</title>
<g id="a_node3"><a xlink:href="$unionil__reg__limit__t.html" xlink:title="Limits. ">
<polygon fill="white" stroke="black" points="3,-145.5 3,-164.5 74,-164.5 74,-145.5 3,-145.5"/>
<text text-anchor="middle" x="38.5" y="-152.5" font-family="Helvetica,sans-Serif" font-size="10.00">il_reg_limit_t</text>
</a>
</g>
</g>
<!-- Node3&#45;&gt;Node2 -->
<g id="edge2" class="edge"><title>Node3&#45;&gt;Node2</title>
<path fill="none" stroke="#9a32cd" stroke-dasharray="5,2" d="M38.5,-135.224C38.5,-119.697 38.5,-98.3582 38.5,-86.6165"/>
<polygon fill="#9a32cd" stroke="#9a32cd" points="35.0001,-135.282 38.5,-145.282 42.0001,-135.282 35.0001,-135.282"/>
<text text-anchor="middle" x="48" y="-119" font-family="Helvetica,sans-Serif" font-size="10.00"> min</text>
<text text-anchor="middle" x="48" y="-108" font-family="Helvetica,sans-Serif" font-size="10.00">max</text>
</g>
</g>
</svg>
