<?xml version="1.0" encoding="UTF-8" standalone="no"?>
<!DOCTYPE svg PUBLIC "-//W3C//DTD SVG 1.1//EN"
 "http://www.w3.org/Graphics/SVG/1.1/DTD/svg11.dtd">
<!-- Generated by graphviz version 2.38.0 (20140413.2041)
 -->
<!-- Title: il_reg_range_t Pages: 1 -->
<svg width="85pt" height="106pt"
 viewBox="0.00 0.00 85.00 106.00" xmlns="http://www.w3.org/2000/svg" xmlns:xlink="http://www.w3.org/1999/xlink">
<g id="graph0" class="graph" transform="scale(1 1) rotate(0) translate(4 102)">
<title>il_reg_range_t</title>
<polygon fill="white" stroke="none" points="-4,4 -4,-102 81,-102 81,4 -4,4"/>
<!-- Node1 -->
<g id="node1" class="node"><title>Node1</title>
<polygon fill="#bfbfbf" stroke="black" points="0,-0.5 0,-19.5 77,-19.5 77,-0.5 0,-0.5"/>
<text text-anchor="middle" x="38.5" y="-7.5" font-family="Helvetica,sans-Serif" font-size="10.00">il_reg_range_t</text>
</g>
<!-- Node2 -->
<g id="node2" class="node"><title>Node2</title>
<g id="a_node2"><a xlink:href="$unionil__reg__limit__t.html" xlink:title="Limits. ">
<polygon fill="white" stroke="black" points="3,-78.5 3,-97.5 74,-97.5 74,-78.5 3,-78.5"/>
<text text-anchor="middle" x="38.5" y="-85.5" font-family="Helvetica,sans-Serif" font-size="10.00">il_reg_limit_t</text>
</a>
</g>
</g>
<!-- Node2&#45;&gt;Node1 -->
<g id="edge1" class="edge"><title>Node2&#45;&gt;Node1</title>
<path fill="none" stroke="#9a32cd" stroke-dasharray="5,2" d="M38.5,-68.2239C38.5,-52.6974 38.5,-31.3582 38.5,-19.6165"/>
<polygon fill="#9a32cd" stroke="#9a32cd" points="35.0001,-68.2818 38.5,-78.2818 42.0001,-68.2819 35.0001,-68.2818"/>
<text text-anchor="middle" x="48" y="-52" font-family="Helvetica,sans-Serif" font-size="10.00"> min</text>
<text text-anchor="middle" x="48" y="-41" font-family="Helvetica,sans-Serif" font-size="10.00">max</text>
</g>
</g>
</svg>
