<?xml version="1.0" encoding="UTF-8" standalone="no"?>
<!DOCTYPE svg PUBLIC "-//W3C//DTD SVG 1.1//EN"
 "http://www.w3.org/Graphics/SVG/1.1/DTD/svg11.dtd">
<!-- Generated by graphviz version 2.38.0 (20140413.2041)
 -->
<!-- Title: ingenialink/const.h Pages: 1 -->
<svg width="127pt" height="140pt"
 viewBox="0.00 0.00 127.00 140.00" xmlns="http://www.w3.org/2000/svg" xmlns:xlink="http://www.w3.org/1999/xlink">
<g id="graph0" class="graph" transform="scale(1 1) rotate(0) translate(4 136)">
<title>ingenialink/const.h</title>
<polygon fill="white" stroke="none" points="-4,4 -4,-136 123,-136 123,4 -4,4"/>
<!-- Node1 -->
<g id="node1" class="node"><title>Node1</title>
<polygon fill="#bfbfbf" stroke="black" points="10.5,-112.5 10.5,-131.5 108.5,-131.5 108.5,-112.5 10.5,-112.5"/>
<text text-anchor="middle" x="59.5" y="-119.5" font-family="Helvetica,sans-Serif" font-size="10.00">ingenialink/const.h</text>
</g>
<!-- Node2 -->
<g id="node2" class="node"><title>Node2</title>
<g id="a_node2"><a xlink:href="ingenialink_8h.html" target="_top" xlink:title="IngeniaLink main header. ">
<polygon fill="white" stroke="black" points="0,-56.5 0,-75.5 119,-75.5 119,-56.5 0,-56.5"/>
<text text-anchor="middle" x="59.5" y="-63.5" font-family="Helvetica,sans-Serif" font-size="10.00">ingenialink/ingenialink.h</text>
</a>
</g>
</g>
<!-- Node1&#45;&gt;Node2 -->
<g id="edge1" class="edge"><title>Node1&#45;&gt;Node2</title>
<path fill="none" stroke="midnightblue" d="M59.5,-101.805C59.5,-92.9102 59.5,-82.7798 59.5,-75.7511"/>
<polygon fill="midnightblue" stroke="midnightblue" points="56.0001,-102.083 59.5,-112.083 63.0001,-102.083 56.0001,-102.083"/>
</g>
<!-- Node3 -->
<g id="node3" class="node"><title>Node3</title>
<g id="a_node3"><a xlink:href="utils_8h_source.html" target="_top" xlink:title="utils.h">
<polygon fill="white" stroke="black" points="38,-0.5 38,-19.5 81,-19.5 81,-0.5 38,-0.5"/>
<text text-anchor="middle" x="59.5" y="-7.5" font-family="Helvetica,sans-Serif" font-size="10.00">utils.h</text>
</a>
</g>
</g>
<!-- Node2&#45;&gt;Node3 -->
<g id="edge2" class="edge"><title>Node2&#45;&gt;Node3</title>
<path fill="none" stroke="midnightblue" d="M59.5,-45.8045C59.5,-36.9102 59.5,-26.7798 59.5,-19.7511"/>
<polygon fill="midnightblue" stroke="midnightblue" points="56.0001,-46.083 59.5,-56.083 63.0001,-46.083 56.0001,-46.083"/>
</g>
</g>
</svg>
