<?xml version="1.0" encoding="UTF-8" standalone="no"?>
<!DOCTYPE svg PUBLIC "-//W3C//DTD SVG 1.1//EN"
 "http://www.w3.org/Graphics/SVG/1.1/DTD/svg11.dtd">
<!-- Generated by graphviz version 2.38.0 (20140413.2041)
 -->
<!-- Title: ingenialink/dict.h Pages: 1 -->
<svg width="261pt" height="252pt"
 viewBox="0.00 0.00 261.00 252.00" xmlns="http://www.w3.org/2000/svg" xmlns:xlink="http://www.w3.org/1999/xlink">
<g id="graph0" class="graph" transform="scale(1 1) rotate(0) translate(4 248)">
<title>ingenialink/dict.h</title>
<polygon fill="white" stroke="none" points="-4,4 -4,-248 257,-248 257,4 -4,4"/>
<!-- Node1 -->
<g id="node1" class="node"><title>Node1</title>
<polygon fill="#bfbfbf" stroke="black" points="0,-224.5 0,-243.5 89,-243.5 89,-224.5 0,-224.5"/>
<text text-anchor="middle" x="44.5" y="-231.5" font-family="Helvetica,sans-Serif" font-size="10.00">ingenialink/dict.h</text>
</g>
<!-- Node2 -->
<g id="node2" class="node"><title>Node2</title>
<g id="a_node2"><a xlink:href="ingenialink_8h.html" target="_top" xlink:title="IngeniaLink main header. ">
<polygon fill="white" stroke="black" points="26,-56.5 26,-75.5 145,-75.5 145,-56.5 26,-56.5"/>
<text text-anchor="middle" x="85.5" y="-63.5" font-family="Helvetica,sans-Serif" font-size="10.00">ingenialink/ingenialink.h</text>
</a>
</g>
</g>
<!-- Node1&#45;&gt;Node2 -->
<g id="edge1" class="edge"><title>Node1&#45;&gt;Node2</title>
<path fill="none" stroke="midnightblue" d="M34.7874,-215.044C22.9129,-190.466 6.38336,-145.573 23.5,-112 32.1991,-94.9372 50.7289,-82.8318 65.2774,-75.5055"/>
<polygon fill="midnightblue" stroke="midnightblue" points="31.8175,-216.924 39.4798,-224.241 38.0528,-213.743 31.8175,-216.924"/>
</g>
<!-- Node4 -->
<g id="node4" class="node"><title>Node4</title>
<g id="a_node4"><a xlink:href="servo_8h.html" target="_top" xlink:title="Servo. ">
<polygon fill="white" stroke="black" points="36.5,-168.5 36.5,-187.5 134.5,-187.5 134.5,-168.5 36.5,-168.5"/>
<text text-anchor="middle" x="85.5" y="-175.5" font-family="Helvetica,sans-Serif" font-size="10.00">ingenialink/servo.h</text>
</a>
</g>
</g>
<!-- Node1&#45;&gt;Node4 -->
<g id="edge3" class="edge"><title>Node1&#45;&gt;Node4</title>
<path fill="none" stroke="midnightblue" d="M57.5172,-215.855C64.6167,-206.505 73.104,-195.327 78.8557,-187.751"/>
<polygon fill="midnightblue" stroke="midnightblue" points="54.5299,-214.002 51.2703,-224.083 60.105,-218.235 54.5299,-214.002"/>
</g>
<!-- Node3 -->
<g id="node3" class="node"><title>Node3</title>
<g id="a_node3"><a xlink:href="utils_8h_source.html" target="_top" xlink:title="utils.h">
<polygon fill="white" stroke="black" points="64,-0.5 64,-19.5 107,-19.5 107,-0.5 64,-0.5"/>
<text text-anchor="middle" x="85.5" y="-7.5" font-family="Helvetica,sans-Serif" font-size="10.00">utils.h</text>
</a>
</g>
</g>
<!-- Node2&#45;&gt;Node3 -->
<g id="edge2" class="edge"><title>Node2&#45;&gt;Node3</title>
<path fill="none" stroke="midnightblue" d="M85.5,-45.8045C85.5,-36.9102 85.5,-26.7798 85.5,-19.7511"/>
<polygon fill="midnightblue" stroke="midnightblue" points="82.0001,-46.083 85.5,-56.083 89.0001,-46.083 82.0001,-46.083"/>
</g>
<!-- Node5 -->
<g id="node5" class="node"><title>Node5</title>
<g id="a_node5"><a xlink:href="monitor_8h.html" target="_top" xlink:title="Monitor. ">
<polygon fill="white" stroke="black" points="32.5,-112.5 32.5,-131.5 138.5,-131.5 138.5,-112.5 32.5,-112.5"/>
<text text-anchor="middle" x="85.5" y="-119.5" font-family="Helvetica,sans-Serif" font-size="10.00">ingenialink/monitor.h</text>
</a>
</g>
</g>
<!-- Node4&#45;&gt;Node5 -->
<g id="edge4" class="edge"><title>Node4&#45;&gt;Node5</title>
<path fill="none" stroke="midnightblue" d="M85.5,-157.805C85.5,-148.91 85.5,-138.78 85.5,-131.751"/>
<polygon fill="midnightblue" stroke="midnightblue" points="82.0001,-158.083 85.5,-168.083 89.0001,-158.083 82.0001,-158.083"/>
</g>
<!-- Node6 -->
<g id="node6" class="node"><title>Node6</title>
<g id="a_node6"><a xlink:href="poller_8h.html" target="_top" xlink:title="Poller. ">
<polygon fill="white" stroke="black" points="156,-112.5 156,-131.5 253,-131.5 253,-112.5 156,-112.5"/>
<text text-anchor="middle" x="204.5" y="-119.5" font-family="Helvetica,sans-Serif" font-size="10.00">ingenialink/poller.h</text>
</a>
</g>
</g>
<!-- Node4&#45;&gt;Node6 -->
<g id="edge6" class="edge"><title>Node4&#45;&gt;Node6</title>
<path fill="none" stroke="midnightblue" d="M113.637,-164.232C135.896,-154.131 166.356,-140.309 185.732,-131.516"/>
<polygon fill="midnightblue" stroke="midnightblue" points="112.016,-161.124 104.356,-168.444 114.909,-167.498 112.016,-161.124"/>
</g>
<!-- Node5&#45;&gt;Node2 -->
<g id="edge5" class="edge"><title>Node5&#45;&gt;Node2</title>
<path fill="none" stroke="midnightblue" d="M85.5,-101.805C85.5,-92.9102 85.5,-82.7798 85.5,-75.7511"/>
<polygon fill="midnightblue" stroke="midnightblue" points="82.0001,-102.083 85.5,-112.083 89.0001,-102.083 82.0001,-102.083"/>
</g>
<!-- Node6&#45;&gt;Node2 -->
<g id="edge7" class="edge"><title>Node6&#45;&gt;Node2</title>
<path fill="none" stroke="midnightblue" d="M176.363,-108.232C154.104,-98.1312 123.644,-84.3091 104.268,-75.5164"/>
<polygon fill="midnightblue" stroke="midnightblue" points="175.091,-111.498 185.644,-112.444 177.984,-105.124 175.091,-111.498"/>
</g>
</g>
</svg>
