<?xml version="1.0" encoding="UTF-8" standalone="no"?>
<!DOCTYPE svg PUBLIC "-//W3C//DTD SVG 1.1//EN"
 "http://www.w3.org/Graphics/SVG/1.1/DTD/svg11.dtd">
<!-- Generated by graphviz version 2.38.0 (20140413.2041)
 -->
<!-- Title: ingenialink/dict_labels.h Pages: 1 -->
<svg width="277pt" height="364pt"
 viewBox="0.00 0.00 276.50 364.00" xmlns="http://www.w3.org/2000/svg" xmlns:xlink="http://www.w3.org/1999/xlink">
<g id="graph0" class="graph" transform="scale(1 1) rotate(0) translate(4 360)">
<title>ingenialink/dict_labels.h</title>
<polygon fill="white" stroke="none" points="-4,4 -4,-360 272.5,-360 272.5,4 -4,4"/>
<!-- Node1 -->
<g id="node1" class="node"><title>Node1</title>
<polygon fill="#bfbfbf" stroke="black" points="0,-336.5 0,-355.5 120,-355.5 120,-336.5 0,-336.5"/>
<text text-anchor="middle" x="60" y="-343.5" font-family="Helvetica,sans-Serif" font-size="10.00">ingenialink/dict_labels.h</text>
</g>
<!-- Node2 -->
<g id="node2" class="node"><title>Node2</title>
<g id="a_node2"><a xlink:href="dict_8h.html" target="_top" xlink:title="Dictionary. ">
<polygon fill="white" stroke="black" points="15.5,-224.5 15.5,-243.5 104.5,-243.5 104.5,-224.5 15.5,-224.5"/>
<text text-anchor="middle" x="60" y="-231.5" font-family="Helvetica,sans-Serif" font-size="10.00">ingenialink/dict.h</text>
</a>
</g>
</g>
<!-- Node1&#45;&gt;Node2 -->
<g id="edge1" class="edge"><title>Node1&#45;&gt;Node2</title>
<path fill="none" stroke="midnightblue" d="M48.5782,-327.442C44.0173,-319.419 39.3067,-309.582 37,-300 32.0129,-279.285 45.0805,-255.952 53.5066,-243.656"/>
<polygon fill="midnightblue" stroke="midnightblue" points="45.7106,-329.463 53.8954,-336.191 51.6924,-325.827 45.7106,-329.463"/>
</g>
<!-- Node8 -->
<g id="node8" class="node"><title>Node8</title>
<g id="a_node8"><a xlink:href="registers_8h.html" target="_top" xlink:title="Registers. ">
<polygon fill="white" stroke="black" points="46.5,-280.5 46.5,-299.5 157.5,-299.5 157.5,-280.5 46.5,-280.5"/>
<text text-anchor="middle" x="102" y="-287.5" font-family="Helvetica,sans-Serif" font-size="10.00">ingenialink/registers.h</text>
</a>
</g>
</g>
<!-- Node1&#45;&gt;Node8 -->
<g id="edge9" class="edge"><title>Node1&#45;&gt;Node8</title>
<path fill="none" stroke="midnightblue" d="M73.1102,-328.144C80.4278,-318.736 89.2409,-307.405 95.1936,-299.751"/>
<polygon fill="midnightblue" stroke="midnightblue" points="70.3122,-326.041 66.9354,-336.083 75.8376,-330.338 70.3122,-326.041"/>
</g>
<!-- Node3 -->
<g id="node3" class="node"><title>Node3</title>
<g id="a_node3"><a xlink:href="ingenialink_8h.html" target="_top" xlink:title="IngeniaLink main header. ">
<polygon fill="white" stroke="black" points="41.5,-56.5 41.5,-75.5 160.5,-75.5 160.5,-56.5 41.5,-56.5"/>
<text text-anchor="middle" x="101" y="-63.5" font-family="Helvetica,sans-Serif" font-size="10.00">ingenialink/ingenialink.h</text>
</a>
</g>
</g>
<!-- Node2&#45;&gt;Node3 -->
<g id="edge2" class="edge"><title>Node2&#45;&gt;Node3</title>
<path fill="none" stroke="midnightblue" d="M50.2874,-215.044C38.4129,-190.466 21.8834,-145.573 39,-112 47.6991,-94.9372 66.2289,-82.8318 80.7774,-75.5055"/>
<polygon fill="midnightblue" stroke="midnightblue" points="47.3175,-216.924 54.9798,-224.241 53.5528,-213.743 47.3175,-216.924"/>
</g>
<!-- Node5 -->
<g id="node5" class="node"><title>Node5</title>
<g id="a_node5"><a xlink:href="servo_8h.html" target="_top" xlink:title="Servo. ">
<polygon fill="white" stroke="black" points="52,-168.5 52,-187.5 150,-187.5 150,-168.5 52,-168.5"/>
<text text-anchor="middle" x="101" y="-175.5" font-family="Helvetica,sans-Serif" font-size="10.00">ingenialink/servo.h</text>
</a>
</g>
</g>
<!-- Node2&#45;&gt;Node5 -->
<g id="edge4" class="edge"><title>Node2&#45;&gt;Node5</title>
<path fill="none" stroke="midnightblue" d="M73.0172,-215.855C80.1167,-206.505 88.604,-195.327 94.3557,-187.751"/>
<polygon fill="midnightblue" stroke="midnightblue" points="70.0299,-214.002 66.7703,-224.083 75.605,-218.235 70.0299,-214.002"/>
</g>
<!-- Node4 -->
<g id="node4" class="node"><title>Node4</title>
<g id="a_node4"><a xlink:href="utils_8h_source.html" target="_top" xlink:title="utils.h">
<polygon fill="white" stroke="black" points="79.5,-0.5 79.5,-19.5 122.5,-19.5 122.5,-0.5 79.5,-0.5"/>
<text text-anchor="middle" x="101" y="-7.5" font-family="Helvetica,sans-Serif" font-size="10.00">utils.h</text>
</a>
</g>
</g>
<!-- Node3&#45;&gt;Node4 -->
<g id="edge3" class="edge"><title>Node3&#45;&gt;Node4</title>
<path fill="none" stroke="midnightblue" d="M101,-45.8045C101,-36.9102 101,-26.7798 101,-19.7511"/>
<polygon fill="midnightblue" stroke="midnightblue" points="97.5001,-46.083 101,-56.083 104.5,-46.083 97.5001,-46.083"/>
</g>
<!-- Node6 -->
<g id="node6" class="node"><title>Node6</title>
<g id="a_node6"><a xlink:href="monitor_8h.html" target="_top" xlink:title="Monitor. ">
<polygon fill="white" stroke="black" points="48,-112.5 48,-131.5 154,-131.5 154,-112.5 48,-112.5"/>
<text text-anchor="middle" x="101" y="-119.5" font-family="Helvetica,sans-Serif" font-size="10.00">ingenialink/monitor.h</text>
</a>
</g>
</g>
<!-- Node5&#45;&gt;Node6 -->
<g id="edge5" class="edge"><title>Node5&#45;&gt;Node6</title>
<path fill="none" stroke="midnightblue" d="M101,-157.805C101,-148.91 101,-138.78 101,-131.751"/>
<polygon fill="midnightblue" stroke="midnightblue" points="97.5001,-158.083 101,-168.083 104.5,-158.083 97.5001,-158.083"/>
</g>
<!-- Node7 -->
<g id="node7" class="node"><title>Node7</title>
<g id="a_node7"><a xlink:href="poller_8h.html" target="_top" xlink:title="Poller. ">
<polygon fill="white" stroke="black" points="171.5,-112.5 171.5,-131.5 268.5,-131.5 268.5,-112.5 171.5,-112.5"/>
<text text-anchor="middle" x="220" y="-119.5" font-family="Helvetica,sans-Serif" font-size="10.00">ingenialink/poller.h</text>
</a>
</g>
</g>
<!-- Node5&#45;&gt;Node7 -->
<g id="edge7" class="edge"><title>Node5&#45;&gt;Node7</title>
<path fill="none" stroke="midnightblue" d="M129.137,-164.232C151.396,-154.131 181.856,-140.309 201.232,-131.516"/>
<polygon fill="midnightblue" stroke="midnightblue" points="127.516,-161.124 119.856,-168.444 130.409,-167.498 127.516,-161.124"/>
</g>
<!-- Node6&#45;&gt;Node3 -->
<g id="edge6" class="edge"><title>Node6&#45;&gt;Node3</title>
<path fill="none" stroke="midnightblue" d="M101,-101.805C101,-92.9102 101,-82.7798 101,-75.7511"/>
<polygon fill="midnightblue" stroke="midnightblue" points="97.5001,-102.083 101,-112.083 104.5,-102.083 97.5001,-102.083"/>
</g>
<!-- Node7&#45;&gt;Node3 -->
<g id="edge8" class="edge"><title>Node7&#45;&gt;Node3</title>
<path fill="none" stroke="midnightblue" d="M191.863,-108.232C169.604,-98.1312 139.144,-84.3091 119.768,-75.5164"/>
<polygon fill="midnightblue" stroke="midnightblue" points="190.591,-111.498 201.144,-112.444 193.484,-105.124 190.591,-111.498"/>
</g>
<!-- Node8&#45;&gt;Node2 -->
<g id="edge10" class="edge"><title>Node8&#45;&gt;Node2</title>
<path fill="none" stroke="midnightblue" d="M88.8898,-272.144C81.5722,-262.736 72.7591,-251.405 66.8064,-243.751"/>
<polygon fill="midnightblue" stroke="midnightblue" points="86.1624,-274.338 95.0646,-280.083 91.6878,-270.041 86.1624,-274.338"/>
</g>
</g>
</svg>
